<mxfile host="app.diagrams.net" modified="2023-11-03T19:06:25.021Z" agent="Mozilla/5.0 (Windows NT 10.0; Win64; x64) AppleWebKit/537.36 (KHTML, like Gecko) Chrome/116.0.5845.931 YaBrowser/23.9.3.931 Yowser/2.5 Safari/537.36" etag="bWVVJjxdCjcQbOPTPX5t" version="22.0.8" type="device">
  <diagram id="R2lEEEUBdFMjLlhIrx00" name="Page-1">
    <mxGraphModel dx="2332" dy="928" grid="1" gridSize="10" guides="1" tooltips="1" connect="1" arrows="1" fold="1" page="1" pageScale="1" pageWidth="1100" pageHeight="850" math="0" shadow="0" extFonts="Permanent Marker^https://fonts.googleapis.com/css?family=Permanent+Marker">
      <root>
        <mxCell id="0" />
        <mxCell id="1" parent="0" />
        <mxCell id="C-vyLk0tnHw3VtMMgP7b-2" value="Robot_Vacuum" style="shape=table;startSize=30;container=1;collapsible=1;childLayout=tableLayout;fixedRows=1;rowLines=0;fontStyle=1;align=center;resizeLast=1;rounded=1;enumerate=0;backgroundOutline=0;metaEdit=0;fixDash=0;snapToPoint=1;comic=0;shadow=0;swimlaneLine=1;labelBackgroundColor=none;fillColor=#FAE5C7;strokeColor=#0F8B8D;fontColor=#143642;" parent="1" vertex="1">
          <mxGeometry x="-270" y="640" width="170" height="180" as="geometry" />
        </mxCell>
        <mxCell id="C-vyLk0tnHw3VtMMgP7b-3" value="" style="shape=partialRectangle;collapsible=0;dropTarget=0;pointerEvents=0;fillColor=none;points=[[0,0.5],[1,0.5]];portConstraint=eastwest;top=0;left=0;right=0;bottom=1;rounded=1;enumerate=0;backgroundOutline=0;metaEdit=0;fixDash=0;snapToPoint=1;comic=0;shadow=0;swimlaneLine=1;labelBackgroundColor=none;strokeColor=#0F8B8D;fontColor=#143642;" parent="C-vyLk0tnHw3VtMMgP7b-2" vertex="1">
          <mxGeometry y="30" width="170" height="30" as="geometry" />
        </mxCell>
        <mxCell id="C-vyLk0tnHw3VtMMgP7b-4" value="PK" style="shape=partialRectangle;overflow=hidden;connectable=0;fillColor=none;top=0;left=0;bottom=0;right=0;fontStyle=1;rounded=1;enumerate=0;backgroundOutline=0;metaEdit=0;fixDash=0;snapToPoint=1;comic=0;shadow=0;swimlaneLine=1;labelBackgroundColor=none;strokeColor=#0F8B8D;fontColor=#143642;" parent="C-vyLk0tnHw3VtMMgP7b-3" vertex="1">
          <mxGeometry width="30" height="30" as="geometry">
            <mxRectangle width="30" height="30" as="alternateBounds" />
          </mxGeometry>
        </mxCell>
        <mxCell id="C-vyLk0tnHw3VtMMgP7b-5" value="ID " style="shape=partialRectangle;overflow=hidden;connectable=0;fillColor=none;top=0;left=0;bottom=0;right=0;align=left;spacingLeft=6;fontStyle=5;rounded=1;enumerate=0;backgroundOutline=0;metaEdit=0;fixDash=0;snapToPoint=1;comic=0;shadow=0;swimlaneLine=1;labelBackgroundColor=none;strokeColor=#0F8B8D;fontColor=#143642;" parent="C-vyLk0tnHw3VtMMgP7b-3" vertex="1">
          <mxGeometry x="30" width="140" height="30" as="geometry">
            <mxRectangle width="140" height="30" as="alternateBounds" />
          </mxGeometry>
        </mxCell>
        <mxCell id="C-vyLk0tnHw3VtMMgP7b-6" value="" style="shape=partialRectangle;collapsible=0;dropTarget=0;pointerEvents=0;fillColor=none;points=[[0,0.5],[1,0.5]];portConstraint=eastwest;top=0;left=0;right=0;bottom=0;rounded=1;enumerate=0;backgroundOutline=0;metaEdit=0;fixDash=0;snapToPoint=1;comic=0;shadow=0;swimlaneLine=1;labelBackgroundColor=none;strokeColor=#0F8B8D;fontColor=#143642;" parent="C-vyLk0tnHw3VtMMgP7b-2" vertex="1">
          <mxGeometry y="60" width="170" height="30" as="geometry" />
        </mxCell>
        <mxCell id="C-vyLk0tnHw3VtMMgP7b-7" value="" style="shape=partialRectangle;overflow=hidden;connectable=0;fillColor=none;top=0;left=0;bottom=0;right=0;rounded=1;enumerate=0;backgroundOutline=0;metaEdit=0;fixDash=0;snapToPoint=1;comic=0;shadow=0;swimlaneLine=1;labelBackgroundColor=none;strokeColor=#0F8B8D;fontColor=#143642;" parent="C-vyLk0tnHw3VtMMgP7b-6" vertex="1">
          <mxGeometry width="30" height="30" as="geometry">
            <mxRectangle width="30" height="30" as="alternateBounds" />
          </mxGeometry>
        </mxCell>
        <mxCell id="C-vyLk0tnHw3VtMMgP7b-8" value="Model" style="shape=partialRectangle;overflow=hidden;connectable=0;fillColor=none;top=0;left=0;bottom=0;right=0;align=left;spacingLeft=6;rounded=1;enumerate=0;backgroundOutline=0;metaEdit=0;fixDash=0;snapToPoint=1;comic=0;shadow=0;swimlaneLine=1;labelBackgroundColor=none;strokeColor=#0F8B8D;fontColor=#143642;" parent="C-vyLk0tnHw3VtMMgP7b-6" vertex="1">
          <mxGeometry x="30" width="140" height="30" as="geometry">
            <mxRectangle width="140" height="30" as="alternateBounds" />
          </mxGeometry>
        </mxCell>
        <mxCell id="C-vyLk0tnHw3VtMMgP7b-9" value="" style="shape=partialRectangle;collapsible=0;dropTarget=0;pointerEvents=0;fillColor=none;points=[[0,0.5],[1,0.5]];portConstraint=eastwest;top=0;left=0;right=0;bottom=0;rounded=1;enumerate=0;backgroundOutline=0;metaEdit=0;fixDash=0;snapToPoint=1;comic=0;shadow=0;swimlaneLine=1;labelBackgroundColor=none;strokeColor=#0F8B8D;fontColor=#143642;" parent="C-vyLk0tnHw3VtMMgP7b-2" vertex="1">
          <mxGeometry y="90" width="170" height="30" as="geometry" />
        </mxCell>
        <mxCell id="C-vyLk0tnHw3VtMMgP7b-10" value="" style="shape=partialRectangle;overflow=hidden;connectable=0;fillColor=none;top=0;left=0;bottom=0;right=0;rounded=1;enumerate=0;backgroundOutline=0;metaEdit=0;fixDash=0;snapToPoint=1;comic=0;shadow=0;swimlaneLine=1;labelBackgroundColor=none;strokeColor=#0F8B8D;fontColor=#143642;" parent="C-vyLk0tnHw3VtMMgP7b-9" vertex="1">
          <mxGeometry width="30" height="30" as="geometry">
            <mxRectangle width="30" height="30" as="alternateBounds" />
          </mxGeometry>
        </mxCell>
        <mxCell id="C-vyLk0tnHw3VtMMgP7b-11" value="Manufacturer" style="shape=partialRectangle;overflow=hidden;connectable=0;fillColor=none;top=0;left=0;bottom=0;right=0;align=left;spacingLeft=6;rounded=1;enumerate=0;backgroundOutline=0;metaEdit=0;fixDash=0;snapToPoint=1;comic=0;shadow=0;swimlaneLine=1;labelBackgroundColor=none;strokeColor=#0F8B8D;fontColor=#143642;" parent="C-vyLk0tnHw3VtMMgP7b-9" vertex="1">
          <mxGeometry x="30" width="140" height="30" as="geometry">
            <mxRectangle width="140" height="30" as="alternateBounds" />
          </mxGeometry>
        </mxCell>
        <mxCell id="QWJo6sBRx8cK9oDJyZg6-32" value="" style="shape=tableRow;horizontal=0;startSize=0;swimlaneHead=0;swimlaneBody=0;fillColor=none;collapsible=0;dropTarget=0;points=[[0,0.5],[1,0.5]];portConstraint=eastwest;top=0;left=0;right=0;bottom=0;strokeColor=#0F8B8D;fontColor=#143642;rounded=1;enumerate=0;backgroundOutline=0;metaEdit=0;fixDash=0;snapToPoint=1;comic=0;shadow=0;swimlaneLine=1;labelBackgroundColor=none;" vertex="1" parent="C-vyLk0tnHw3VtMMgP7b-2">
          <mxGeometry y="120" width="170" height="30" as="geometry" />
        </mxCell>
        <mxCell id="QWJo6sBRx8cK9oDJyZg6-33" value="" style="shape=partialRectangle;connectable=0;fillColor=none;top=0;left=0;bottom=0;right=0;editable=1;overflow=hidden;strokeColor=#0F8B8D;fontColor=#143642;rounded=1;enumerate=0;backgroundOutline=0;metaEdit=0;fixDash=0;snapToPoint=1;comic=0;shadow=0;swimlaneLine=1;labelBackgroundColor=none;" vertex="1" parent="QWJo6sBRx8cK9oDJyZg6-32">
          <mxGeometry width="30" height="30" as="geometry">
            <mxRectangle width="30" height="30" as="alternateBounds" />
          </mxGeometry>
        </mxCell>
        <mxCell id="QWJo6sBRx8cK9oDJyZg6-34" value="Year_of_Manufacture" style="shape=partialRectangle;connectable=0;fillColor=none;top=0;left=0;bottom=0;right=0;align=left;spacingLeft=6;overflow=hidden;strokeColor=#0F8B8D;fontColor=#143642;rounded=1;enumerate=0;backgroundOutline=0;metaEdit=0;fixDash=0;snapToPoint=1;comic=0;shadow=0;swimlaneLine=1;labelBackgroundColor=none;" vertex="1" parent="QWJo6sBRx8cK9oDJyZg6-32">
          <mxGeometry x="30" width="140" height="30" as="geometry">
            <mxRectangle width="140" height="30" as="alternateBounds" />
          </mxGeometry>
        </mxCell>
        <mxCell id="QWJo6sBRx8cK9oDJyZg6-35" value="" style="shape=tableRow;horizontal=0;startSize=0;swimlaneHead=0;swimlaneBody=0;fillColor=none;collapsible=0;dropTarget=0;points=[[0,0.5],[1,0.5]];portConstraint=eastwest;top=0;left=0;right=0;bottom=0;strokeColor=#0F8B8D;fontColor=#143642;rounded=1;enumerate=0;backgroundOutline=0;metaEdit=0;fixDash=0;snapToPoint=1;comic=0;shadow=0;swimlaneLine=1;labelBackgroundColor=none;" vertex="1" parent="C-vyLk0tnHw3VtMMgP7b-2">
          <mxGeometry y="150" width="170" height="30" as="geometry" />
        </mxCell>
        <mxCell id="QWJo6sBRx8cK9oDJyZg6-36" value="" style="shape=partialRectangle;connectable=0;fillColor=none;top=0;left=0;bottom=0;right=0;editable=1;overflow=hidden;strokeColor=#0F8B8D;fontColor=#143642;rounded=1;enumerate=0;backgroundOutline=0;metaEdit=0;fixDash=0;snapToPoint=1;comic=0;shadow=0;swimlaneLine=1;labelBackgroundColor=none;" vertex="1" parent="QWJo6sBRx8cK9oDJyZg6-35">
          <mxGeometry width="30" height="30" as="geometry">
            <mxRectangle width="30" height="30" as="alternateBounds" />
          </mxGeometry>
        </mxCell>
        <mxCell id="QWJo6sBRx8cK9oDJyZg6-37" value="Status" style="shape=partialRectangle;connectable=0;fillColor=none;top=0;left=0;bottom=0;right=0;align=left;spacingLeft=6;overflow=hidden;strokeColor=#0F8B8D;fontColor=#143642;rounded=1;enumerate=0;backgroundOutline=0;metaEdit=0;fixDash=0;snapToPoint=1;comic=0;shadow=0;swimlaneLine=1;labelBackgroundColor=none;" vertex="1" parent="QWJo6sBRx8cK9oDJyZg6-35">
          <mxGeometry x="30" width="140" height="30" as="geometry">
            <mxRectangle width="140" height="30" as="alternateBounds" />
          </mxGeometry>
        </mxCell>
        <mxCell id="C-vyLk0tnHw3VtMMgP7b-13" value="Room" style="shape=table;startSize=30;container=1;collapsible=1;childLayout=tableLayout;fixedRows=1;rowLines=0;fontStyle=1;align=center;resizeLast=1;rounded=1;enumerate=0;backgroundOutline=0;metaEdit=0;fixDash=0;snapToPoint=1;comic=0;shadow=0;swimlaneLine=1;labelBackgroundColor=none;fillColor=#FAE5C7;strokeColor=#0F8B8D;fontColor=#143642;" parent="1" vertex="1">
          <mxGeometry x="-665" y="220" width="150" height="150" as="geometry" />
        </mxCell>
        <mxCell id="C-vyLk0tnHw3VtMMgP7b-14" value="" style="shape=partialRectangle;collapsible=0;dropTarget=0;pointerEvents=0;fillColor=none;points=[[0,0.5],[1,0.5]];portConstraint=eastwest;top=0;left=0;right=0;bottom=1;rounded=1;enumerate=0;backgroundOutline=0;metaEdit=0;fixDash=0;snapToPoint=1;comic=0;shadow=0;swimlaneLine=1;labelBackgroundColor=none;strokeColor=#0F8B8D;fontColor=#143642;" parent="C-vyLk0tnHw3VtMMgP7b-13" vertex="1">
          <mxGeometry y="30" width="150" height="30" as="geometry" />
        </mxCell>
        <mxCell id="C-vyLk0tnHw3VtMMgP7b-15" value="PK" style="shape=partialRectangle;overflow=hidden;connectable=0;fillColor=none;top=0;left=0;bottom=0;right=0;fontStyle=1;rounded=1;enumerate=0;backgroundOutline=0;metaEdit=0;fixDash=0;snapToPoint=1;comic=0;shadow=0;swimlaneLine=1;labelBackgroundColor=none;strokeColor=#0F8B8D;fontColor=#143642;" parent="C-vyLk0tnHw3VtMMgP7b-14" vertex="1">
          <mxGeometry width="30" height="30" as="geometry">
            <mxRectangle width="30" height="30" as="alternateBounds" />
          </mxGeometry>
        </mxCell>
        <mxCell id="C-vyLk0tnHw3VtMMgP7b-16" value="ID " style="shape=partialRectangle;overflow=hidden;connectable=0;fillColor=none;top=0;left=0;bottom=0;right=0;align=left;spacingLeft=6;fontStyle=5;rounded=1;enumerate=0;backgroundOutline=0;metaEdit=0;fixDash=0;snapToPoint=1;comic=0;shadow=0;swimlaneLine=1;labelBackgroundColor=none;strokeColor=#0F8B8D;fontColor=#143642;" parent="C-vyLk0tnHw3VtMMgP7b-14" vertex="1">
          <mxGeometry x="30" width="120" height="30" as="geometry">
            <mxRectangle width="120" height="30" as="alternateBounds" />
          </mxGeometry>
        </mxCell>
        <mxCell id="C-vyLk0tnHw3VtMMgP7b-17" value="" style="shape=partialRectangle;collapsible=0;dropTarget=0;pointerEvents=0;fillColor=none;points=[[0,0.5],[1,0.5]];portConstraint=eastwest;top=0;left=0;right=0;bottom=0;rounded=1;enumerate=0;backgroundOutline=0;metaEdit=0;fixDash=0;snapToPoint=1;comic=0;shadow=0;swimlaneLine=1;labelBackgroundColor=none;strokeColor=#0F8B8D;fontColor=#143642;" parent="C-vyLk0tnHw3VtMMgP7b-13" vertex="1">
          <mxGeometry y="60" width="150" height="30" as="geometry" />
        </mxCell>
        <mxCell id="C-vyLk0tnHw3VtMMgP7b-18" value="" style="shape=partialRectangle;overflow=hidden;connectable=0;fillColor=none;top=0;left=0;bottom=0;right=0;rounded=1;enumerate=0;backgroundOutline=0;metaEdit=0;fixDash=0;snapToPoint=1;comic=0;shadow=0;swimlaneLine=1;labelBackgroundColor=none;strokeColor=#0F8B8D;fontColor=#143642;" parent="C-vyLk0tnHw3VtMMgP7b-17" vertex="1">
          <mxGeometry width="30" height="30" as="geometry">
            <mxRectangle width="30" height="30" as="alternateBounds" />
          </mxGeometry>
        </mxCell>
        <mxCell id="C-vyLk0tnHw3VtMMgP7b-19" value="Name_room" style="shape=partialRectangle;overflow=hidden;connectable=0;fillColor=none;top=0;left=0;bottom=0;right=0;align=left;spacingLeft=6;rounded=1;enumerate=0;backgroundOutline=0;metaEdit=0;fixDash=0;snapToPoint=1;comic=0;shadow=0;swimlaneLine=1;labelBackgroundColor=none;strokeColor=#0F8B8D;fontColor=#143642;" parent="C-vyLk0tnHw3VtMMgP7b-17" vertex="1">
          <mxGeometry x="30" width="120" height="30" as="geometry">
            <mxRectangle width="120" height="30" as="alternateBounds" />
          </mxGeometry>
        </mxCell>
        <mxCell id="C-vyLk0tnHw3VtMMgP7b-20" value="" style="shape=partialRectangle;collapsible=0;dropTarget=0;pointerEvents=0;fillColor=none;points=[[0,0.5],[1,0.5]];portConstraint=eastwest;top=0;left=0;right=0;bottom=0;rounded=1;enumerate=0;backgroundOutline=0;metaEdit=0;fixDash=0;snapToPoint=1;comic=0;shadow=0;swimlaneLine=1;labelBackgroundColor=none;strokeColor=#0F8B8D;fontColor=#143642;" parent="C-vyLk0tnHw3VtMMgP7b-13" vertex="1">
          <mxGeometry y="90" width="150" height="30" as="geometry" />
        </mxCell>
        <mxCell id="C-vyLk0tnHw3VtMMgP7b-21" value="" style="shape=partialRectangle;overflow=hidden;connectable=0;fillColor=none;top=0;left=0;bottom=0;right=0;rounded=1;enumerate=0;backgroundOutline=0;metaEdit=0;fixDash=0;snapToPoint=1;comic=0;shadow=0;swimlaneLine=1;labelBackgroundColor=none;strokeColor=#0F8B8D;fontColor=#143642;" parent="C-vyLk0tnHw3VtMMgP7b-20" vertex="1">
          <mxGeometry width="30" height="30" as="geometry">
            <mxRectangle width="30" height="30" as="alternateBounds" />
          </mxGeometry>
        </mxCell>
        <mxCell id="C-vyLk0tnHw3VtMMgP7b-22" value="Area" style="shape=partialRectangle;overflow=hidden;connectable=0;fillColor=none;top=0;left=0;bottom=0;right=0;align=left;spacingLeft=6;rounded=1;enumerate=0;backgroundOutline=0;metaEdit=0;fixDash=0;snapToPoint=1;comic=0;shadow=0;swimlaneLine=1;labelBackgroundColor=none;strokeColor=#0F8B8D;fontColor=#143642;" parent="C-vyLk0tnHw3VtMMgP7b-20" vertex="1">
          <mxGeometry x="30" width="120" height="30" as="geometry">
            <mxRectangle width="120" height="30" as="alternateBounds" />
          </mxGeometry>
        </mxCell>
        <mxCell id="QWJo6sBRx8cK9oDJyZg6-38" value="" style="shape=tableRow;horizontal=0;startSize=0;swimlaneHead=0;swimlaneBody=0;fillColor=none;collapsible=0;dropTarget=0;points=[[0,0.5],[1,0.5]];portConstraint=eastwest;top=0;left=0;right=0;bottom=0;strokeColor=#0F8B8D;fontColor=#143642;rounded=1;enumerate=0;backgroundOutline=0;metaEdit=0;fixDash=0;snapToPoint=1;comic=0;shadow=0;swimlaneLine=1;labelBackgroundColor=none;" vertex="1" parent="C-vyLk0tnHw3VtMMgP7b-13">
          <mxGeometry y="120" width="150" height="30" as="geometry" />
        </mxCell>
        <mxCell id="QWJo6sBRx8cK9oDJyZg6-39" value="" style="shape=partialRectangle;connectable=0;fillColor=none;top=0;left=0;bottom=0;right=0;editable=1;overflow=hidden;strokeColor=#0F8B8D;fontColor=#143642;rounded=1;enumerate=0;backgroundOutline=0;metaEdit=0;fixDash=0;snapToPoint=1;comic=0;shadow=0;swimlaneLine=1;labelBackgroundColor=none;" vertex="1" parent="QWJo6sBRx8cK9oDJyZg6-38">
          <mxGeometry width="30" height="30" as="geometry">
            <mxRectangle width="30" height="30" as="alternateBounds" />
          </mxGeometry>
        </mxCell>
        <mxCell id="QWJo6sBRx8cK9oDJyZg6-40" value="Furniture Presence" style="shape=partialRectangle;connectable=0;fillColor=none;top=0;left=0;bottom=0;right=0;align=left;spacingLeft=6;overflow=hidden;strokeColor=#0F8B8D;fontColor=#143642;rounded=1;enumerate=0;backgroundOutline=0;metaEdit=0;fixDash=0;snapToPoint=1;comic=0;shadow=0;swimlaneLine=1;labelBackgroundColor=none;" vertex="1" parent="QWJo6sBRx8cK9oDJyZg6-38">
          <mxGeometry x="30" width="120" height="30" as="geometry">
            <mxRectangle width="120" height="30" as="alternateBounds" />
          </mxGeometry>
        </mxCell>
        <mxCell id="C-vyLk0tnHw3VtMMgP7b-23" value="User" style="shape=table;startSize=30;container=1;collapsible=1;childLayout=tableLayout;fixedRows=1;rowLines=0;fontStyle=1;align=center;resizeLast=1;rounded=1;enumerate=0;backgroundOutline=0;metaEdit=0;fixDash=0;snapToPoint=1;comic=0;shadow=0;swimlaneLine=1;labelBackgroundColor=none;fillColor=#FAE5C7;strokeColor=#0F8B8D;fontColor=#143642;" parent="1" vertex="1">
          <mxGeometry x="-1000" y="210" width="130" height="210" as="geometry" />
        </mxCell>
        <mxCell id="C-vyLk0tnHw3VtMMgP7b-24" value="" style="shape=partialRectangle;collapsible=0;dropTarget=0;pointerEvents=0;fillColor=none;points=[[0,0.5],[1,0.5]];portConstraint=eastwest;top=0;left=0;right=0;bottom=1;rounded=1;enumerate=0;backgroundOutline=0;metaEdit=0;fixDash=0;snapToPoint=1;comic=0;shadow=0;swimlaneLine=1;labelBackgroundColor=none;strokeColor=#0F8B8D;fontColor=#143642;" parent="C-vyLk0tnHw3VtMMgP7b-23" vertex="1">
          <mxGeometry y="30" width="130" height="30" as="geometry" />
        </mxCell>
        <mxCell id="C-vyLk0tnHw3VtMMgP7b-25" value="PK" style="shape=partialRectangle;overflow=hidden;connectable=0;fillColor=none;top=0;left=0;bottom=0;right=0;fontStyle=1;rounded=1;enumerate=0;backgroundOutline=0;metaEdit=0;fixDash=0;snapToPoint=1;comic=0;shadow=0;swimlaneLine=1;labelBackgroundColor=none;strokeColor=#0F8B8D;fontColor=#143642;" parent="C-vyLk0tnHw3VtMMgP7b-24" vertex="1">
          <mxGeometry width="30" height="30" as="geometry">
            <mxRectangle width="30" height="30" as="alternateBounds" />
          </mxGeometry>
        </mxCell>
        <mxCell id="C-vyLk0tnHw3VtMMgP7b-26" value="ID" style="shape=partialRectangle;overflow=hidden;connectable=0;fillColor=none;top=0;left=0;bottom=0;right=0;align=left;spacingLeft=6;fontStyle=5;rounded=1;enumerate=0;backgroundOutline=0;metaEdit=0;fixDash=0;snapToPoint=1;comic=0;shadow=0;swimlaneLine=1;labelBackgroundColor=none;strokeColor=#0F8B8D;fontColor=#143642;" parent="C-vyLk0tnHw3VtMMgP7b-24" vertex="1">
          <mxGeometry x="30" width="100" height="30" as="geometry">
            <mxRectangle width="100" height="30" as="alternateBounds" />
          </mxGeometry>
        </mxCell>
        <mxCell id="C-vyLk0tnHw3VtMMgP7b-27" value="" style="shape=partialRectangle;collapsible=0;dropTarget=0;pointerEvents=0;fillColor=none;points=[[0,0.5],[1,0.5]];portConstraint=eastwest;top=0;left=0;right=0;bottom=0;rounded=1;enumerate=0;backgroundOutline=0;metaEdit=0;fixDash=0;snapToPoint=1;comic=0;shadow=0;swimlaneLine=1;labelBackgroundColor=none;strokeColor=#0F8B8D;fontColor=#143642;" parent="C-vyLk0tnHw3VtMMgP7b-23" vertex="1">
          <mxGeometry y="60" width="130" height="30" as="geometry" />
        </mxCell>
        <mxCell id="C-vyLk0tnHw3VtMMgP7b-28" value="" style="shape=partialRectangle;overflow=hidden;connectable=0;fillColor=none;top=0;left=0;bottom=0;right=0;rounded=1;enumerate=0;backgroundOutline=0;metaEdit=0;fixDash=0;snapToPoint=1;comic=0;shadow=0;swimlaneLine=1;labelBackgroundColor=none;strokeColor=#0F8B8D;fontColor=#143642;" parent="C-vyLk0tnHw3VtMMgP7b-27" vertex="1">
          <mxGeometry width="30" height="30" as="geometry">
            <mxRectangle width="30" height="30" as="alternateBounds" />
          </mxGeometry>
        </mxCell>
        <mxCell id="C-vyLk0tnHw3VtMMgP7b-29" value="User_Name" style="shape=partialRectangle;overflow=hidden;connectable=0;fillColor=none;top=0;left=0;bottom=0;right=0;align=left;spacingLeft=6;rounded=1;enumerate=0;backgroundOutline=0;metaEdit=0;fixDash=0;snapToPoint=1;comic=0;shadow=0;swimlaneLine=1;labelBackgroundColor=none;strokeColor=#0F8B8D;fontColor=#143642;" parent="C-vyLk0tnHw3VtMMgP7b-27" vertex="1">
          <mxGeometry x="30" width="100" height="30" as="geometry">
            <mxRectangle width="100" height="30" as="alternateBounds" />
          </mxGeometry>
        </mxCell>
        <mxCell id="QWJo6sBRx8cK9oDJyZg6-177" value="" style="shape=tableRow;horizontal=0;startSize=0;swimlaneHead=0;swimlaneBody=0;fillColor=none;collapsible=0;dropTarget=0;points=[[0,0.5],[1,0.5]];portConstraint=eastwest;top=0;left=0;right=0;bottom=0;strokeColor=#0F8B8D;fontColor=#143642;rounded=1;enumerate=0;backgroundOutline=0;metaEdit=0;fixDash=0;snapToPoint=1;comic=0;shadow=0;swimlaneLine=1;labelBackgroundColor=none;" vertex="1" parent="C-vyLk0tnHw3VtMMgP7b-23">
          <mxGeometry y="90" width="130" height="30" as="geometry" />
        </mxCell>
        <mxCell id="QWJo6sBRx8cK9oDJyZg6-178" value="" style="shape=partialRectangle;connectable=0;fillColor=none;top=0;left=0;bottom=0;right=0;editable=1;overflow=hidden;strokeColor=#0F8B8D;fontColor=#143642;rounded=1;enumerate=0;backgroundOutline=0;metaEdit=0;fixDash=0;snapToPoint=1;comic=0;shadow=0;swimlaneLine=1;labelBackgroundColor=none;" vertex="1" parent="QWJo6sBRx8cK9oDJyZg6-177">
          <mxGeometry width="30" height="30" as="geometry">
            <mxRectangle width="30" height="30" as="alternateBounds" />
          </mxGeometry>
        </mxCell>
        <mxCell id="QWJo6sBRx8cK9oDJyZg6-179" value="Email" style="shape=partialRectangle;connectable=0;fillColor=none;top=0;left=0;bottom=0;right=0;align=left;spacingLeft=6;overflow=hidden;strokeColor=#0F8B8D;fontColor=#143642;rounded=1;enumerate=0;backgroundOutline=0;metaEdit=0;fixDash=0;snapToPoint=1;comic=0;shadow=0;swimlaneLine=1;labelBackgroundColor=none;" vertex="1" parent="QWJo6sBRx8cK9oDJyZg6-177">
          <mxGeometry x="30" width="100" height="30" as="geometry">
            <mxRectangle width="100" height="30" as="alternateBounds" />
          </mxGeometry>
        </mxCell>
        <mxCell id="QWJo6sBRx8cK9oDJyZg6-23" value="" style="shape=tableRow;horizontal=0;startSize=0;swimlaneHead=0;swimlaneBody=0;fillColor=none;collapsible=0;dropTarget=0;points=[[0,0.5],[1,0.5]];portConstraint=eastwest;top=0;left=0;right=0;bottom=0;strokeColor=#0F8B8D;fontColor=#143642;rounded=1;enumerate=0;backgroundOutline=0;metaEdit=0;fixDash=0;snapToPoint=1;comic=0;shadow=0;swimlaneLine=1;labelBackgroundColor=none;" vertex="1" parent="C-vyLk0tnHw3VtMMgP7b-23">
          <mxGeometry y="120" width="130" height="30" as="geometry" />
        </mxCell>
        <mxCell id="QWJo6sBRx8cK9oDJyZg6-24" value="" style="shape=partialRectangle;connectable=0;fillColor=none;top=0;left=0;bottom=0;right=0;editable=1;overflow=hidden;strokeColor=#0F8B8D;fontColor=#143642;rounded=1;enumerate=0;backgroundOutline=0;metaEdit=0;fixDash=0;snapToPoint=1;comic=0;shadow=0;swimlaneLine=1;labelBackgroundColor=none;" vertex="1" parent="QWJo6sBRx8cK9oDJyZg6-23">
          <mxGeometry width="30" height="30" as="geometry">
            <mxRectangle width="30" height="30" as="alternateBounds" />
          </mxGeometry>
        </mxCell>
        <mxCell id="QWJo6sBRx8cK9oDJyZg6-25" value="Email" style="shape=partialRectangle;connectable=0;fillColor=none;top=0;left=0;bottom=0;right=0;align=left;spacingLeft=6;overflow=hidden;strokeColor=#0F8B8D;fontColor=#143642;rounded=1;enumerate=0;backgroundOutline=0;metaEdit=0;fixDash=0;snapToPoint=1;comic=0;shadow=0;swimlaneLine=1;labelBackgroundColor=none;" vertex="1" parent="QWJo6sBRx8cK9oDJyZg6-23">
          <mxGeometry x="30" width="100" height="30" as="geometry">
            <mxRectangle width="100" height="30" as="alternateBounds" />
          </mxGeometry>
        </mxCell>
        <mxCell id="QWJo6sBRx8cK9oDJyZg6-26" value="" style="shape=tableRow;horizontal=0;startSize=0;swimlaneHead=0;swimlaneBody=0;fillColor=none;collapsible=0;dropTarget=0;points=[[0,0.5],[1,0.5]];portConstraint=eastwest;top=0;left=0;right=0;bottom=0;strokeColor=#0F8B8D;fontColor=#143642;rounded=1;enumerate=0;backgroundOutline=0;metaEdit=0;fixDash=0;snapToPoint=1;comic=0;shadow=0;swimlaneLine=1;labelBackgroundColor=none;" vertex="1" parent="C-vyLk0tnHw3VtMMgP7b-23">
          <mxGeometry y="150" width="130" height="30" as="geometry" />
        </mxCell>
        <mxCell id="QWJo6sBRx8cK9oDJyZg6-27" value="" style="shape=partialRectangle;connectable=0;fillColor=none;top=0;left=0;bottom=0;right=0;editable=1;overflow=hidden;strokeColor=#0F8B8D;fontColor=#143642;rounded=1;enumerate=0;backgroundOutline=0;metaEdit=0;fixDash=0;snapToPoint=1;comic=0;shadow=0;swimlaneLine=1;labelBackgroundColor=none;" vertex="1" parent="QWJo6sBRx8cK9oDJyZg6-26">
          <mxGeometry width="30" height="30" as="geometry">
            <mxRectangle width="30" height="30" as="alternateBounds" />
          </mxGeometry>
        </mxCell>
        <mxCell id="QWJo6sBRx8cK9oDJyZg6-28" value="Password" style="shape=partialRectangle;connectable=0;fillColor=none;top=0;left=0;bottom=0;right=0;align=left;spacingLeft=6;overflow=hidden;strokeColor=#0F8B8D;fontColor=#143642;rounded=1;enumerate=0;backgroundOutline=0;metaEdit=0;fixDash=0;snapToPoint=1;comic=0;shadow=0;swimlaneLine=1;labelBackgroundColor=none;" vertex="1" parent="QWJo6sBRx8cK9oDJyZg6-26">
          <mxGeometry x="30" width="100" height="30" as="geometry">
            <mxRectangle width="100" height="30" as="alternateBounds" />
          </mxGeometry>
        </mxCell>
        <mxCell id="QWJo6sBRx8cK9oDJyZg6-29" value="" style="shape=tableRow;horizontal=0;startSize=0;swimlaneHead=0;swimlaneBody=0;fillColor=none;collapsible=0;dropTarget=0;points=[[0,0.5],[1,0.5]];portConstraint=eastwest;top=0;left=0;right=0;bottom=0;strokeColor=#0F8B8D;fontColor=#143642;rounded=1;enumerate=0;backgroundOutline=0;metaEdit=0;fixDash=0;snapToPoint=1;comic=0;shadow=0;swimlaneLine=1;labelBackgroundColor=none;" vertex="1" parent="C-vyLk0tnHw3VtMMgP7b-23">
          <mxGeometry y="180" width="130" height="30" as="geometry" />
        </mxCell>
        <mxCell id="QWJo6sBRx8cK9oDJyZg6-30" value="" style="shape=partialRectangle;connectable=0;fillColor=none;top=0;left=0;bottom=0;right=0;editable=1;overflow=hidden;strokeColor=#0F8B8D;fontColor=#143642;rounded=1;enumerate=0;backgroundOutline=0;metaEdit=0;fixDash=0;snapToPoint=1;comic=0;shadow=0;swimlaneLine=1;labelBackgroundColor=none;" vertex="1" parent="QWJo6sBRx8cK9oDJyZg6-29">
          <mxGeometry width="30" height="30" as="geometry">
            <mxRectangle width="30" height="30" as="alternateBounds" />
          </mxGeometry>
        </mxCell>
        <mxCell id="QWJo6sBRx8cK9oDJyZg6-31" value="Phone" style="shape=partialRectangle;connectable=0;fillColor=none;top=0;left=0;bottom=0;right=0;align=left;spacingLeft=6;overflow=hidden;strokeColor=#0F8B8D;fontColor=#143642;rounded=1;enumerate=0;backgroundOutline=0;metaEdit=0;fixDash=0;snapToPoint=1;comic=0;shadow=0;swimlaneLine=1;labelBackgroundColor=none;" vertex="1" parent="QWJo6sBRx8cK9oDJyZg6-29">
          <mxGeometry x="30" width="100" height="30" as="geometry">
            <mxRectangle width="100" height="30" as="alternateBounds" />
          </mxGeometry>
        </mxCell>
        <mxCell id="QWJo6sBRx8cK9oDJyZg6-2" value="Schedule" style="shape=table;startSize=30;container=1;collapsible=1;childLayout=tableLayout;fixedRows=1;rowLines=0;fontStyle=1;align=center;resizeLast=1;rounded=1;enumerate=0;backgroundOutline=0;metaEdit=0;fixDash=0;snapToPoint=1;comic=0;shadow=0;swimlaneLine=1;labelBackgroundColor=none;fillColor=#FAE5C7;strokeColor=#0F8B8D;fontColor=#143642;" vertex="1" parent="1">
          <mxGeometry x="-470" y="120" width="150" height="180" as="geometry" />
        </mxCell>
        <mxCell id="QWJo6sBRx8cK9oDJyZg6-3" value="" style="shape=partialRectangle;collapsible=0;dropTarget=0;pointerEvents=0;fillColor=none;points=[[0,0.5],[1,0.5]];portConstraint=eastwest;top=0;left=0;right=0;bottom=1;rounded=1;enumerate=0;backgroundOutline=0;metaEdit=0;fixDash=0;snapToPoint=1;comic=0;shadow=0;swimlaneLine=1;labelBackgroundColor=none;strokeColor=#0F8B8D;fontColor=#143642;" vertex="1" parent="QWJo6sBRx8cK9oDJyZg6-2">
          <mxGeometry y="30" width="150" height="30" as="geometry" />
        </mxCell>
        <mxCell id="QWJo6sBRx8cK9oDJyZg6-4" value="PK" style="shape=partialRectangle;overflow=hidden;connectable=0;fillColor=none;top=0;left=0;bottom=0;right=0;fontStyle=1;rounded=1;enumerate=0;backgroundOutline=0;metaEdit=0;fixDash=0;snapToPoint=1;comic=0;shadow=0;swimlaneLine=1;labelBackgroundColor=none;strokeColor=#0F8B8D;fontColor=#143642;" vertex="1" parent="QWJo6sBRx8cK9oDJyZg6-3">
          <mxGeometry width="30" height="30" as="geometry">
            <mxRectangle width="30" height="30" as="alternateBounds" />
          </mxGeometry>
        </mxCell>
        <mxCell id="QWJo6sBRx8cK9oDJyZg6-5" value="ID " style="shape=partialRectangle;overflow=hidden;connectable=0;fillColor=none;top=0;left=0;bottom=0;right=0;align=left;spacingLeft=6;fontStyle=5;rounded=1;enumerate=0;backgroundOutline=0;metaEdit=0;fixDash=0;snapToPoint=1;comic=0;shadow=0;swimlaneLine=1;labelBackgroundColor=none;strokeColor=#0F8B8D;fontColor=#143642;" vertex="1" parent="QWJo6sBRx8cK9oDJyZg6-3">
          <mxGeometry x="30" width="120" height="30" as="geometry">
            <mxRectangle width="120" height="30" as="alternateBounds" />
          </mxGeometry>
        </mxCell>
        <mxCell id="QWJo6sBRx8cK9oDJyZg6-6" value="" style="shape=partialRectangle;collapsible=0;dropTarget=0;pointerEvents=0;fillColor=none;points=[[0,0.5],[1,0.5]];portConstraint=eastwest;top=0;left=0;right=0;bottom=0;rounded=1;enumerate=0;backgroundOutline=0;metaEdit=0;fixDash=0;snapToPoint=1;comic=0;shadow=0;swimlaneLine=1;labelBackgroundColor=none;strokeColor=#0F8B8D;fontColor=#143642;" vertex="1" parent="QWJo6sBRx8cK9oDJyZg6-2">
          <mxGeometry y="60" width="150" height="30" as="geometry" />
        </mxCell>
        <mxCell id="QWJo6sBRx8cK9oDJyZg6-7" value="" style="shape=partialRectangle;overflow=hidden;connectable=0;fillColor=none;top=0;left=0;bottom=0;right=0;rounded=1;enumerate=0;backgroundOutline=0;metaEdit=0;fixDash=0;snapToPoint=1;comic=0;shadow=0;swimlaneLine=1;labelBackgroundColor=none;strokeColor=#0F8B8D;fontColor=#143642;" vertex="1" parent="QWJo6sBRx8cK9oDJyZg6-6">
          <mxGeometry width="30" height="30" as="geometry">
            <mxRectangle width="30" height="30" as="alternateBounds" />
          </mxGeometry>
        </mxCell>
        <mxCell id="QWJo6sBRx8cK9oDJyZg6-8" value="User_group_ID" style="shape=partialRectangle;overflow=hidden;connectable=0;fillColor=none;top=0;left=0;bottom=0;right=0;align=left;spacingLeft=6;rounded=1;enumerate=0;backgroundOutline=0;metaEdit=0;fixDash=0;snapToPoint=1;comic=0;shadow=0;swimlaneLine=1;labelBackgroundColor=none;strokeColor=#0F8B8D;fontColor=#143642;" vertex="1" parent="QWJo6sBRx8cK9oDJyZg6-6">
          <mxGeometry x="30" width="120" height="30" as="geometry">
            <mxRectangle width="120" height="30" as="alternateBounds" />
          </mxGeometry>
        </mxCell>
        <mxCell id="QWJo6sBRx8cK9oDJyZg6-9" value="" style="shape=partialRectangle;collapsible=0;dropTarget=0;pointerEvents=0;fillColor=none;points=[[0,0.5],[1,0.5]];portConstraint=eastwest;top=0;left=0;right=0;bottom=0;rounded=1;enumerate=0;backgroundOutline=0;metaEdit=0;fixDash=0;snapToPoint=1;comic=0;shadow=0;swimlaneLine=1;labelBackgroundColor=none;strokeColor=#0F8B8D;fontColor=#143642;" vertex="1" parent="QWJo6sBRx8cK9oDJyZg6-2">
          <mxGeometry y="90" width="150" height="30" as="geometry" />
        </mxCell>
        <mxCell id="QWJo6sBRx8cK9oDJyZg6-10" value="" style="shape=partialRectangle;overflow=hidden;connectable=0;fillColor=none;top=0;left=0;bottom=0;right=0;rounded=1;enumerate=0;backgroundOutline=0;metaEdit=0;fixDash=0;snapToPoint=1;comic=0;shadow=0;swimlaneLine=1;labelBackgroundColor=none;strokeColor=#0F8B8D;fontColor=#143642;" vertex="1" parent="QWJo6sBRx8cK9oDJyZg6-9">
          <mxGeometry width="30" height="30" as="geometry">
            <mxRectangle width="30" height="30" as="alternateBounds" />
          </mxGeometry>
        </mxCell>
        <mxCell id="QWJo6sBRx8cK9oDJyZg6-11" value="Robot_Vacuum_ID" style="shape=partialRectangle;overflow=hidden;connectable=0;fillColor=none;top=0;left=0;bottom=0;right=0;align=left;spacingLeft=6;rounded=1;enumerate=0;backgroundOutline=0;metaEdit=0;fixDash=0;snapToPoint=1;comic=0;shadow=0;swimlaneLine=1;labelBackgroundColor=none;strokeColor=#0F8B8D;fontColor=#143642;" vertex="1" parent="QWJo6sBRx8cK9oDJyZg6-9">
          <mxGeometry x="30" width="120" height="30" as="geometry">
            <mxRectangle width="120" height="30" as="alternateBounds" />
          </mxGeometry>
        </mxCell>
        <mxCell id="QWJo6sBRx8cK9oDJyZg6-41" value="" style="shape=tableRow;horizontal=0;startSize=0;swimlaneHead=0;swimlaneBody=0;fillColor=none;collapsible=0;dropTarget=0;points=[[0,0.5],[1,0.5]];portConstraint=eastwest;top=0;left=0;right=0;bottom=0;strokeColor=#0F8B8D;fontColor=#143642;rounded=1;enumerate=0;backgroundOutline=0;metaEdit=0;fixDash=0;snapToPoint=1;comic=0;shadow=0;swimlaneLine=1;labelBackgroundColor=none;" vertex="1" parent="QWJo6sBRx8cK9oDJyZg6-2">
          <mxGeometry y="120" width="150" height="30" as="geometry" />
        </mxCell>
        <mxCell id="QWJo6sBRx8cK9oDJyZg6-42" value="" style="shape=partialRectangle;connectable=0;fillColor=none;top=0;left=0;bottom=0;right=0;editable=1;overflow=hidden;strokeColor=#0F8B8D;fontColor=#143642;rounded=1;enumerate=0;backgroundOutline=0;metaEdit=0;fixDash=0;snapToPoint=1;comic=0;shadow=0;swimlaneLine=1;labelBackgroundColor=none;" vertex="1" parent="QWJo6sBRx8cK9oDJyZg6-41">
          <mxGeometry width="30" height="30" as="geometry">
            <mxRectangle width="30" height="30" as="alternateBounds" />
          </mxGeometry>
        </mxCell>
        <mxCell id="QWJo6sBRx8cK9oDJyZg6-43" value="Work_days" style="shape=partialRectangle;connectable=0;fillColor=none;top=0;left=0;bottom=0;right=0;align=left;spacingLeft=6;overflow=hidden;strokeColor=#0F8B8D;fontColor=#143642;rounded=1;enumerate=0;backgroundOutline=0;metaEdit=0;fixDash=0;snapToPoint=1;comic=0;shadow=0;swimlaneLine=1;labelBackgroundColor=none;" vertex="1" parent="QWJo6sBRx8cK9oDJyZg6-41">
          <mxGeometry x="30" width="120" height="30" as="geometry">
            <mxRectangle width="120" height="30" as="alternateBounds" />
          </mxGeometry>
        </mxCell>
        <mxCell id="QWJo6sBRx8cK9oDJyZg6-44" value="" style="shape=tableRow;horizontal=0;startSize=0;swimlaneHead=0;swimlaneBody=0;fillColor=none;collapsible=0;dropTarget=0;points=[[0,0.5],[1,0.5]];portConstraint=eastwest;top=0;left=0;right=0;bottom=0;strokeColor=#0F8B8D;fontColor=#143642;rounded=1;enumerate=0;backgroundOutline=0;metaEdit=0;fixDash=0;snapToPoint=1;comic=0;shadow=0;swimlaneLine=1;labelBackgroundColor=none;" vertex="1" parent="QWJo6sBRx8cK9oDJyZg6-2">
          <mxGeometry y="150" width="150" height="30" as="geometry" />
        </mxCell>
        <mxCell id="QWJo6sBRx8cK9oDJyZg6-45" value="" style="shape=partialRectangle;connectable=0;fillColor=none;top=0;left=0;bottom=0;right=0;editable=1;overflow=hidden;strokeColor=#0F8B8D;fontColor=#143642;rounded=1;enumerate=0;backgroundOutline=0;metaEdit=0;fixDash=0;snapToPoint=1;comic=0;shadow=0;swimlaneLine=1;labelBackgroundColor=none;" vertex="1" parent="QWJo6sBRx8cK9oDJyZg6-44">
          <mxGeometry width="30" height="30" as="geometry">
            <mxRectangle width="30" height="30" as="alternateBounds" />
          </mxGeometry>
        </mxCell>
        <mxCell id="QWJo6sBRx8cK9oDJyZg6-46" value="Work_time " style="shape=partialRectangle;connectable=0;fillColor=none;top=0;left=0;bottom=0;right=0;align=left;spacingLeft=6;overflow=hidden;strokeColor=#0F8B8D;fontColor=#143642;rounded=1;enumerate=0;backgroundOutline=0;metaEdit=0;fixDash=0;snapToPoint=1;comic=0;shadow=0;swimlaneLine=1;labelBackgroundColor=none;" vertex="1" parent="QWJo6sBRx8cK9oDJyZg6-44">
          <mxGeometry x="30" width="120" height="30" as="geometry">
            <mxRectangle width="120" height="30" as="alternateBounds" />
          </mxGeometry>
        </mxCell>
        <mxCell id="QWJo6sBRx8cK9oDJyZg6-12" value="Task" style="shape=table;startSize=30;container=1;collapsible=1;childLayout=tableLayout;fixedRows=1;rowLines=0;fontStyle=1;align=center;resizeLast=1;rounded=1;enumerate=0;backgroundOutline=0;metaEdit=0;fixDash=0;snapToPoint=1;comic=0;shadow=0;swimlaneLine=1;labelBackgroundColor=none;fillColor=#FAE5C7;strokeColor=#0F8B8D;fontColor=#143642;" vertex="1" parent="1">
          <mxGeometry x="-480" y="320" width="170" height="150" as="geometry" />
        </mxCell>
        <mxCell id="QWJo6sBRx8cK9oDJyZg6-13" value="" style="shape=partialRectangle;collapsible=0;dropTarget=0;pointerEvents=0;fillColor=none;points=[[0,0.5],[1,0.5]];portConstraint=eastwest;top=0;left=0;right=0;bottom=1;rounded=1;enumerate=0;backgroundOutline=0;metaEdit=0;fixDash=0;snapToPoint=1;comic=0;shadow=0;swimlaneLine=1;labelBackgroundColor=none;strokeColor=#0F8B8D;fontColor=#143642;" vertex="1" parent="QWJo6sBRx8cK9oDJyZg6-12">
          <mxGeometry y="30" width="170" height="30" as="geometry" />
        </mxCell>
        <mxCell id="QWJo6sBRx8cK9oDJyZg6-14" value="PK" style="shape=partialRectangle;overflow=hidden;connectable=0;fillColor=none;top=0;left=0;bottom=0;right=0;fontStyle=1;rounded=1;enumerate=0;backgroundOutline=0;metaEdit=0;fixDash=0;snapToPoint=1;comic=0;shadow=0;swimlaneLine=1;labelBackgroundColor=none;strokeColor=#0F8B8D;fontColor=#143642;" vertex="1" parent="QWJo6sBRx8cK9oDJyZg6-13">
          <mxGeometry width="30" height="30" as="geometry">
            <mxRectangle width="30" height="30" as="alternateBounds" />
          </mxGeometry>
        </mxCell>
        <mxCell id="QWJo6sBRx8cK9oDJyZg6-15" value="ID " style="shape=partialRectangle;overflow=hidden;connectable=0;fillColor=none;top=0;left=0;bottom=0;right=0;align=left;spacingLeft=6;fontStyle=5;rounded=1;enumerate=0;backgroundOutline=0;metaEdit=0;fixDash=0;snapToPoint=1;comic=0;shadow=0;swimlaneLine=1;labelBackgroundColor=none;strokeColor=#0F8B8D;fontColor=#143642;" vertex="1" parent="QWJo6sBRx8cK9oDJyZg6-13">
          <mxGeometry x="30" width="140" height="30" as="geometry">
            <mxRectangle width="140" height="30" as="alternateBounds" />
          </mxGeometry>
        </mxCell>
        <mxCell id="QWJo6sBRx8cK9oDJyZg6-16" value="" style="shape=partialRectangle;collapsible=0;dropTarget=0;pointerEvents=0;fillColor=none;points=[[0,0.5],[1,0.5]];portConstraint=eastwest;top=0;left=0;right=0;bottom=0;rounded=1;enumerate=0;backgroundOutline=0;metaEdit=0;fixDash=0;snapToPoint=1;comic=0;shadow=0;swimlaneLine=1;labelBackgroundColor=none;strokeColor=#0F8B8D;fontColor=#143642;" vertex="1" parent="QWJo6sBRx8cK9oDJyZg6-12">
          <mxGeometry y="60" width="170" height="30" as="geometry" />
        </mxCell>
        <mxCell id="QWJo6sBRx8cK9oDJyZg6-17" value="" style="shape=partialRectangle;overflow=hidden;connectable=0;fillColor=none;top=0;left=0;bottom=0;right=0;rounded=1;enumerate=0;backgroundOutline=0;metaEdit=0;fixDash=0;snapToPoint=1;comic=0;shadow=0;swimlaneLine=1;labelBackgroundColor=none;strokeColor=#0F8B8D;fontColor=#143642;" vertex="1" parent="QWJo6sBRx8cK9oDJyZg6-16">
          <mxGeometry width="30" height="30" as="geometry">
            <mxRectangle width="30" height="30" as="alternateBounds" />
          </mxGeometry>
        </mxCell>
        <mxCell id="QWJo6sBRx8cK9oDJyZg6-18" value="Robot_Vacuum_ID" style="shape=partialRectangle;overflow=hidden;connectable=0;fillColor=none;top=0;left=0;bottom=0;right=0;align=left;spacingLeft=6;rounded=1;enumerate=0;backgroundOutline=0;metaEdit=0;fixDash=0;snapToPoint=1;comic=0;shadow=0;swimlaneLine=1;labelBackgroundColor=none;strokeColor=#0F8B8D;fontColor=#143642;" vertex="1" parent="QWJo6sBRx8cK9oDJyZg6-16">
          <mxGeometry x="30" width="140" height="30" as="geometry">
            <mxRectangle width="140" height="30" as="alternateBounds" />
          </mxGeometry>
        </mxCell>
        <mxCell id="QWJo6sBRx8cK9oDJyZg6-19" value="" style="shape=partialRectangle;collapsible=0;dropTarget=0;pointerEvents=0;fillColor=none;points=[[0,0.5],[1,0.5]];portConstraint=eastwest;top=0;left=0;right=0;bottom=0;rounded=1;enumerate=0;backgroundOutline=0;metaEdit=0;fixDash=0;snapToPoint=1;comic=0;shadow=0;swimlaneLine=1;labelBackgroundColor=none;strokeColor=#0F8B8D;fontColor=#143642;" vertex="1" parent="QWJo6sBRx8cK9oDJyZg6-12">
          <mxGeometry y="90" width="170" height="30" as="geometry" />
        </mxCell>
        <mxCell id="QWJo6sBRx8cK9oDJyZg6-20" value="" style="shape=partialRectangle;overflow=hidden;connectable=0;fillColor=none;top=0;left=0;bottom=0;right=0;rounded=1;enumerate=0;backgroundOutline=0;metaEdit=0;fixDash=0;snapToPoint=1;comic=0;shadow=0;swimlaneLine=1;labelBackgroundColor=none;strokeColor=#0F8B8D;fontColor=#143642;" vertex="1" parent="QWJo6sBRx8cK9oDJyZg6-19">
          <mxGeometry width="30" height="30" as="geometry">
            <mxRectangle width="30" height="30" as="alternateBounds" />
          </mxGeometry>
        </mxCell>
        <mxCell id="QWJo6sBRx8cK9oDJyZg6-21" value="Room_ID" style="shape=partialRectangle;overflow=hidden;connectable=0;fillColor=none;top=0;left=0;bottom=0;right=0;align=left;spacingLeft=6;rounded=1;enumerate=0;backgroundOutline=0;metaEdit=0;fixDash=0;snapToPoint=1;comic=0;shadow=0;swimlaneLine=1;labelBackgroundColor=none;strokeColor=#0F8B8D;fontColor=#143642;" vertex="1" parent="QWJo6sBRx8cK9oDJyZg6-19">
          <mxGeometry x="30" width="140" height="30" as="geometry">
            <mxRectangle width="140" height="30" as="alternateBounds" />
          </mxGeometry>
        </mxCell>
        <mxCell id="QWJo6sBRx8cK9oDJyZg6-47" value="" style="shape=tableRow;horizontal=0;startSize=0;swimlaneHead=0;swimlaneBody=0;fillColor=none;collapsible=0;dropTarget=0;points=[[0,0.5],[1,0.5]];portConstraint=eastwest;top=0;left=0;right=0;bottom=0;strokeColor=#0F8B8D;fontColor=#143642;rounded=1;enumerate=0;backgroundOutline=0;metaEdit=0;fixDash=0;snapToPoint=1;comic=0;shadow=0;swimlaneLine=1;labelBackgroundColor=none;" vertex="1" parent="QWJo6sBRx8cK9oDJyZg6-12">
          <mxGeometry y="120" width="170" height="30" as="geometry" />
        </mxCell>
        <mxCell id="QWJo6sBRx8cK9oDJyZg6-48" value="" style="shape=partialRectangle;connectable=0;fillColor=none;top=0;left=0;bottom=0;right=0;editable=1;overflow=hidden;strokeColor=#0F8B8D;fontColor=#143642;rounded=1;enumerate=0;backgroundOutline=0;metaEdit=0;fixDash=0;snapToPoint=1;comic=0;shadow=0;swimlaneLine=1;labelBackgroundColor=none;" vertex="1" parent="QWJo6sBRx8cK9oDJyZg6-47">
          <mxGeometry width="30" height="30" as="geometry">
            <mxRectangle width="30" height="30" as="alternateBounds" />
          </mxGeometry>
        </mxCell>
        <mxCell id="QWJo6sBRx8cK9oDJyZg6-49" value="Task_completion_date" style="shape=partialRectangle;connectable=0;fillColor=none;top=0;left=0;bottom=0;right=0;align=left;spacingLeft=6;overflow=hidden;strokeColor=#0F8B8D;fontColor=#143642;rounded=1;enumerate=0;backgroundOutline=0;metaEdit=0;fixDash=0;snapToPoint=1;comic=0;shadow=0;swimlaneLine=1;labelBackgroundColor=none;" vertex="1" parent="QWJo6sBRx8cK9oDJyZg6-47">
          <mxGeometry x="30" width="140" height="30" as="geometry">
            <mxRectangle width="140" height="30" as="alternateBounds" />
          </mxGeometry>
        </mxCell>
        <mxCell id="QWJo6sBRx8cK9oDJyZg6-50" style="rounded=1;orthogonalLoop=1;jettySize=auto;html=1;strokeColor=#A8201A;fontColor=default;fillColor=#FAE5C7;enumerate=0;backgroundOutline=0;metaEdit=0;fixDash=0;snapToPoint=1;comic=0;shadow=0;swimlaneLine=1;jumpStyle=line;edgeStyle=orthogonalEdgeStyle;exitX=1;exitY=0.5;exitDx=0;exitDy=0;labelBackgroundColor=none;" edge="1" parent="1" source="QWJo6sBRx8cK9oDJyZg6-55" target="QWJo6sBRx8cK9oDJyZg6-6">
          <mxGeometry relative="1" as="geometry">
            <mxPoint x="-680" y="255" as="sourcePoint" />
          </mxGeometry>
        </mxCell>
        <mxCell id="QWJo6sBRx8cK9oDJyZg6-51" style="rounded=1;orthogonalLoop=1;jettySize=auto;html=1;strokeColor=#A8201A;fontColor=default;fillColor=#FAE5C7;enumerate=0;backgroundOutline=0;metaEdit=0;fixDash=0;snapToPoint=1;comic=0;shadow=0;swimlaneLine=1;jumpStyle=line;edgeStyle=elbowEdgeStyle;exitX=0.998;exitY=0.382;exitDx=0;exitDy=0;labelBackgroundColor=none;exitPerimeter=0;" edge="1" parent="1" source="C-vyLk0tnHw3VtMMgP7b-3" target="QWJo6sBRx8cK9oDJyZg6-9">
          <mxGeometry relative="1" as="geometry">
            <mxPoint x="180" y="704" as="sourcePoint" />
            <Array as="points">
              <mxPoint x="-60" y="460" />
            </Array>
          </mxGeometry>
        </mxCell>
        <mxCell id="QWJo6sBRx8cK9oDJyZg6-52" style="rounded=1;orthogonalLoop=1;jettySize=auto;html=1;strokeColor=#A8201A;fontColor=default;fillColor=#FAE5C7;enumerate=0;backgroundOutline=0;metaEdit=0;fixDash=0;snapToPoint=1;comic=0;shadow=0;swimlaneLine=1;jumpStyle=line;edgeStyle=elbowEdgeStyle;entryX=0.004;entryY=0.087;entryDx=0;entryDy=0;entryPerimeter=0;labelBackgroundColor=none;" edge="1" parent="1" source="QWJo6sBRx8cK9oDJyZg6-16" target="C-vyLk0tnHw3VtMMgP7b-3">
          <mxGeometry relative="1" as="geometry">
            <Array as="points">
              <mxPoint x="-290" y="550" />
            </Array>
          </mxGeometry>
        </mxCell>
        <mxCell id="QWJo6sBRx8cK9oDJyZg6-53" style="rounded=1;orthogonalLoop=1;jettySize=auto;html=1;strokeColor=#A8201A;fontColor=default;fillColor=#FAE5C7;enumerate=0;backgroundOutline=0;metaEdit=0;fixDash=0;snapToPoint=1;comic=0;shadow=0;swimlaneLine=1;jumpStyle=line;edgeStyle=elbowEdgeStyle;entryX=0.997;entryY=0.818;entryDx=0;entryDy=0;entryPerimeter=0;labelBackgroundColor=none;" edge="1" parent="1" source="QWJo6sBRx8cK9oDJyZg6-19" target="C-vyLk0tnHw3VtMMgP7b-14">
          <mxGeometry relative="1" as="geometry">
            <Array as="points">
              <mxPoint x="-490" y="380" />
            </Array>
          </mxGeometry>
        </mxCell>
        <mxCell id="QWJo6sBRx8cK9oDJyZg6-54" value="User_group" style="shape=table;startSize=30;container=1;collapsible=1;childLayout=tableLayout;fixedRows=1;rowLines=0;fontStyle=1;align=center;resizeLast=1;rounded=1;enumerate=0;backgroundOutline=0;metaEdit=0;fixDash=0;snapToPoint=1;comic=0;shadow=0;swimlaneLine=1;labelBackgroundColor=none;fillColor=#FAE5C7;strokeColor=#0F8B8D;fontColor=#143642;" vertex="1" parent="1">
          <mxGeometry x="-850" y="150" width="130" height="120" as="geometry" />
        </mxCell>
        <mxCell id="QWJo6sBRx8cK9oDJyZg6-55" value="" style="shape=partialRectangle;collapsible=0;dropTarget=0;pointerEvents=0;fillColor=none;points=[[0,0.5],[1,0.5]];portConstraint=eastwest;top=0;left=0;right=0;bottom=1;rounded=1;enumerate=0;backgroundOutline=0;metaEdit=0;fixDash=0;snapToPoint=1;comic=0;shadow=0;swimlaneLine=1;labelBackgroundColor=none;strokeColor=#0F8B8D;fontColor=#143642;" vertex="1" parent="QWJo6sBRx8cK9oDJyZg6-54">
          <mxGeometry y="30" width="130" height="30" as="geometry" />
        </mxCell>
        <mxCell id="QWJo6sBRx8cK9oDJyZg6-56" value="PK" style="shape=partialRectangle;overflow=hidden;connectable=0;fillColor=none;top=0;left=0;bottom=0;right=0;fontStyle=1;rounded=1;enumerate=0;backgroundOutline=0;metaEdit=0;fixDash=0;snapToPoint=1;comic=0;shadow=0;swimlaneLine=1;labelBackgroundColor=none;strokeColor=#0F8B8D;fontColor=#143642;" vertex="1" parent="QWJo6sBRx8cK9oDJyZg6-55">
          <mxGeometry width="30" height="30" as="geometry">
            <mxRectangle width="30" height="30" as="alternateBounds" />
          </mxGeometry>
        </mxCell>
        <mxCell id="QWJo6sBRx8cK9oDJyZg6-57" value="ID" style="shape=partialRectangle;overflow=hidden;connectable=0;fillColor=none;top=0;left=0;bottom=0;right=0;align=left;spacingLeft=6;fontStyle=5;rounded=1;enumerate=0;backgroundOutline=0;metaEdit=0;fixDash=0;snapToPoint=1;comic=0;shadow=0;swimlaneLine=1;labelBackgroundColor=none;strokeColor=#0F8B8D;fontColor=#143642;" vertex="1" parent="QWJo6sBRx8cK9oDJyZg6-55">
          <mxGeometry x="30" width="100" height="30" as="geometry">
            <mxRectangle width="100" height="30" as="alternateBounds" />
          </mxGeometry>
        </mxCell>
        <mxCell id="QWJo6sBRx8cK9oDJyZg6-58" value="" style="shape=partialRectangle;collapsible=0;dropTarget=0;pointerEvents=0;fillColor=none;points=[[0,0.5],[1,0.5]];portConstraint=eastwest;top=0;left=0;right=0;bottom=0;rounded=1;enumerate=0;backgroundOutline=0;metaEdit=0;fixDash=0;snapToPoint=1;comic=0;shadow=0;swimlaneLine=1;labelBackgroundColor=none;strokeColor=#0F8B8D;fontColor=#143642;" vertex="1" parent="QWJo6sBRx8cK9oDJyZg6-54">
          <mxGeometry y="60" width="130" height="30" as="geometry" />
        </mxCell>
        <mxCell id="QWJo6sBRx8cK9oDJyZg6-59" value="" style="shape=partialRectangle;overflow=hidden;connectable=0;fillColor=none;top=0;left=0;bottom=0;right=0;rounded=1;enumerate=0;backgroundOutline=0;metaEdit=0;fixDash=0;snapToPoint=1;comic=0;shadow=0;swimlaneLine=1;labelBackgroundColor=none;strokeColor=#0F8B8D;fontColor=#143642;" vertex="1" parent="QWJo6sBRx8cK9oDJyZg6-58">
          <mxGeometry width="30" height="30" as="geometry">
            <mxRectangle width="30" height="30" as="alternateBounds" />
          </mxGeometry>
        </mxCell>
        <mxCell id="QWJo6sBRx8cK9oDJyZg6-60" value="Name_group" style="shape=partialRectangle;overflow=hidden;connectable=0;fillColor=none;top=0;left=0;bottom=0;right=0;align=left;spacingLeft=6;rounded=1;enumerate=0;backgroundOutline=0;metaEdit=0;fixDash=0;snapToPoint=1;comic=0;shadow=0;swimlaneLine=1;labelBackgroundColor=none;strokeColor=#0F8B8D;fontColor=#143642;" vertex="1" parent="QWJo6sBRx8cK9oDJyZg6-58">
          <mxGeometry x="30" width="100" height="30" as="geometry">
            <mxRectangle width="100" height="30" as="alternateBounds" />
          </mxGeometry>
        </mxCell>
        <mxCell id="QWJo6sBRx8cK9oDJyZg6-61" value="" style="shape=tableRow;horizontal=0;startSize=0;swimlaneHead=0;swimlaneBody=0;fillColor=none;collapsible=0;dropTarget=0;points=[[0,0.5],[1,0.5]];portConstraint=eastwest;top=0;left=0;right=0;bottom=0;strokeColor=#0F8B8D;fontColor=#143642;rounded=1;enumerate=0;backgroundOutline=0;metaEdit=0;fixDash=0;snapToPoint=1;comic=0;shadow=0;swimlaneLine=1;labelBackgroundColor=none;" vertex="1" parent="QWJo6sBRx8cK9oDJyZg6-54">
          <mxGeometry y="90" width="130" height="30" as="geometry" />
        </mxCell>
        <mxCell id="QWJo6sBRx8cK9oDJyZg6-62" value="" style="shape=partialRectangle;connectable=0;fillColor=none;top=0;left=0;bottom=0;right=0;editable=1;overflow=hidden;strokeColor=#0F8B8D;fontColor=#143642;rounded=1;enumerate=0;backgroundOutline=0;metaEdit=0;fixDash=0;snapToPoint=1;comic=0;shadow=0;swimlaneLine=1;labelBackgroundColor=none;" vertex="1" parent="QWJo6sBRx8cK9oDJyZg6-61">
          <mxGeometry width="30" height="30" as="geometry">
            <mxRectangle width="30" height="30" as="alternateBounds" />
          </mxGeometry>
        </mxCell>
        <mxCell id="QWJo6sBRx8cK9oDJyZg6-63" value="User_ID" style="shape=partialRectangle;connectable=0;fillColor=none;top=0;left=0;bottom=0;right=0;align=left;spacingLeft=6;overflow=hidden;strokeColor=#0F8B8D;fontColor=#143642;rounded=1;enumerate=0;backgroundOutline=0;metaEdit=0;fixDash=0;snapToPoint=1;comic=0;shadow=0;swimlaneLine=1;labelBackgroundColor=none;" vertex="1" parent="QWJo6sBRx8cK9oDJyZg6-61">
          <mxGeometry x="30" width="100" height="30" as="geometry">
            <mxRectangle width="100" height="30" as="alternateBounds" />
          </mxGeometry>
        </mxCell>
        <mxCell id="QWJo6sBRx8cK9oDJyZg6-71" value="Report" style="shape=table;startSize=30;container=1;collapsible=1;childLayout=tableLayout;fixedRows=1;rowLines=0;fontStyle=1;align=center;resizeLast=1;rounded=1;enumerate=0;backgroundOutline=0;metaEdit=0;fixDash=0;snapToPoint=1;comic=0;shadow=0;swimlaneLine=1;labelBackgroundColor=none;fillColor=#FAE5C7;strokeColor=#0F8B8D;fontColor=#143642;" vertex="1" parent="1">
          <mxGeometry x="-870" y="490" width="155" height="210" as="geometry" />
        </mxCell>
        <mxCell id="QWJo6sBRx8cK9oDJyZg6-72" value="" style="shape=partialRectangle;collapsible=0;dropTarget=0;pointerEvents=0;fillColor=none;points=[[0,0.5],[1,0.5]];portConstraint=eastwest;top=0;left=0;right=0;bottom=1;rounded=1;enumerate=0;backgroundOutline=0;metaEdit=0;fixDash=0;snapToPoint=1;comic=0;shadow=0;swimlaneLine=1;labelBackgroundColor=none;strokeColor=#0F8B8D;fontColor=#143642;" vertex="1" parent="QWJo6sBRx8cK9oDJyZg6-71">
          <mxGeometry y="30" width="155" height="30" as="geometry" />
        </mxCell>
        <mxCell id="QWJo6sBRx8cK9oDJyZg6-73" value="PK" style="shape=partialRectangle;overflow=hidden;connectable=0;fillColor=none;top=0;left=0;bottom=0;right=0;fontStyle=1;rounded=1;enumerate=0;backgroundOutline=0;metaEdit=0;fixDash=0;snapToPoint=1;comic=0;shadow=0;swimlaneLine=1;labelBackgroundColor=none;strokeColor=#0F8B8D;fontColor=#143642;" vertex="1" parent="QWJo6sBRx8cK9oDJyZg6-72">
          <mxGeometry width="30" height="30" as="geometry">
            <mxRectangle width="30" height="30" as="alternateBounds" />
          </mxGeometry>
        </mxCell>
        <mxCell id="QWJo6sBRx8cK9oDJyZg6-74" value="ID " style="shape=partialRectangle;overflow=hidden;connectable=0;fillColor=none;top=0;left=0;bottom=0;right=0;align=left;spacingLeft=6;fontStyle=5;rounded=1;enumerate=0;backgroundOutline=0;metaEdit=0;fixDash=0;snapToPoint=1;comic=0;shadow=0;swimlaneLine=1;labelBackgroundColor=none;strokeColor=#0F8B8D;fontColor=#143642;" vertex="1" parent="QWJo6sBRx8cK9oDJyZg6-72">
          <mxGeometry x="30" width="125" height="30" as="geometry">
            <mxRectangle width="125" height="30" as="alternateBounds" />
          </mxGeometry>
        </mxCell>
        <mxCell id="QWJo6sBRx8cK9oDJyZg6-75" value="" style="shape=partialRectangle;collapsible=0;dropTarget=0;pointerEvents=0;fillColor=none;points=[[0,0.5],[1,0.5]];portConstraint=eastwest;top=0;left=0;right=0;bottom=0;rounded=1;enumerate=0;backgroundOutline=0;metaEdit=0;fixDash=0;snapToPoint=1;comic=0;shadow=0;swimlaneLine=1;labelBackgroundColor=none;strokeColor=#0F8B8D;fontColor=#143642;" vertex="1" parent="QWJo6sBRx8cK9oDJyZg6-71">
          <mxGeometry y="60" width="155" height="30" as="geometry" />
        </mxCell>
        <mxCell id="QWJo6sBRx8cK9oDJyZg6-76" value="" style="shape=partialRectangle;overflow=hidden;connectable=0;fillColor=none;top=0;left=0;bottom=0;right=0;rounded=1;enumerate=0;backgroundOutline=0;metaEdit=0;fixDash=0;snapToPoint=1;comic=0;shadow=0;swimlaneLine=1;labelBackgroundColor=none;strokeColor=#0F8B8D;fontColor=#143642;" vertex="1" parent="QWJo6sBRx8cK9oDJyZg6-75">
          <mxGeometry width="30" height="30" as="geometry">
            <mxRectangle width="30" height="30" as="alternateBounds" />
          </mxGeometry>
        </mxCell>
        <mxCell id="QWJo6sBRx8cK9oDJyZg6-77" value="User_group_ID" style="shape=partialRectangle;overflow=hidden;connectable=0;fillColor=none;top=0;left=0;bottom=0;right=0;align=left;spacingLeft=6;rounded=1;enumerate=0;backgroundOutline=0;metaEdit=0;fixDash=0;snapToPoint=1;comic=0;shadow=0;swimlaneLine=1;labelBackgroundColor=none;strokeColor=#0F8B8D;fontColor=#143642;" vertex="1" parent="QWJo6sBRx8cK9oDJyZg6-75">
          <mxGeometry x="30" width="125" height="30" as="geometry">
            <mxRectangle width="125" height="30" as="alternateBounds" />
          </mxGeometry>
        </mxCell>
        <mxCell id="QWJo6sBRx8cK9oDJyZg6-81" value="" style="shape=tableRow;horizontal=0;startSize=0;swimlaneHead=0;swimlaneBody=0;fillColor=none;collapsible=0;dropTarget=0;points=[[0,0.5],[1,0.5]];portConstraint=eastwest;top=0;left=0;right=0;bottom=0;strokeColor=#0F8B8D;fontColor=#143642;rounded=1;enumerate=0;backgroundOutline=0;metaEdit=0;fixDash=0;snapToPoint=1;comic=0;shadow=0;swimlaneLine=1;labelBackgroundColor=none;" vertex="1" parent="QWJo6sBRx8cK9oDJyZg6-71">
          <mxGeometry y="90" width="155" height="30" as="geometry" />
        </mxCell>
        <mxCell id="QWJo6sBRx8cK9oDJyZg6-82" value="" style="shape=partialRectangle;connectable=0;fillColor=none;top=0;left=0;bottom=0;right=0;editable=1;overflow=hidden;strokeColor=#0F8B8D;fontColor=#143642;rounded=1;enumerate=0;backgroundOutline=0;metaEdit=0;fixDash=0;snapToPoint=1;comic=0;shadow=0;swimlaneLine=1;labelBackgroundColor=none;" vertex="1" parent="QWJo6sBRx8cK9oDJyZg6-81">
          <mxGeometry width="30" height="30" as="geometry">
            <mxRectangle width="30" height="30" as="alternateBounds" />
          </mxGeometry>
        </mxCell>
        <mxCell id="QWJo6sBRx8cK9oDJyZg6-83" value="Room_ID " style="shape=partialRectangle;connectable=0;fillColor=none;top=0;left=0;bottom=0;right=0;align=left;spacingLeft=6;overflow=hidden;strokeColor=#0F8B8D;fontColor=#143642;rounded=1;enumerate=0;backgroundOutline=0;metaEdit=0;fixDash=0;snapToPoint=1;comic=0;shadow=0;swimlaneLine=1;labelBackgroundColor=none;" vertex="1" parent="QWJo6sBRx8cK9oDJyZg6-81">
          <mxGeometry x="30" width="125" height="30" as="geometry">
            <mxRectangle width="125" height="30" as="alternateBounds" />
          </mxGeometry>
        </mxCell>
        <mxCell id="QWJo6sBRx8cK9oDJyZg6-78" value="" style="shape=partialRectangle;collapsible=0;dropTarget=0;pointerEvents=0;fillColor=none;points=[[0,0.5],[1,0.5]];portConstraint=eastwest;top=0;left=0;right=0;bottom=0;rounded=1;enumerate=0;backgroundOutline=0;metaEdit=0;fixDash=0;snapToPoint=1;comic=0;shadow=0;swimlaneLine=1;labelBackgroundColor=none;strokeColor=#0F8B8D;fontColor=#143642;" vertex="1" parent="QWJo6sBRx8cK9oDJyZg6-71">
          <mxGeometry y="120" width="155" height="30" as="geometry" />
        </mxCell>
        <mxCell id="QWJo6sBRx8cK9oDJyZg6-79" value="" style="shape=partialRectangle;overflow=hidden;connectable=0;fillColor=none;top=0;left=0;bottom=0;right=0;rounded=1;enumerate=0;backgroundOutline=0;metaEdit=0;fixDash=0;snapToPoint=1;comic=0;shadow=0;swimlaneLine=1;labelBackgroundColor=none;strokeColor=#0F8B8D;fontColor=#143642;" vertex="1" parent="QWJo6sBRx8cK9oDJyZg6-78">
          <mxGeometry width="30" height="30" as="geometry">
            <mxRectangle width="30" height="30" as="alternateBounds" />
          </mxGeometry>
        </mxCell>
        <mxCell id="QWJo6sBRx8cK9oDJyZg6-80" value="Robot_Vacuum_ID " style="shape=partialRectangle;overflow=hidden;connectable=0;fillColor=none;top=0;left=0;bottom=0;right=0;align=left;spacingLeft=6;rounded=1;enumerate=0;backgroundOutline=0;metaEdit=0;fixDash=0;snapToPoint=1;comic=0;shadow=0;swimlaneLine=1;labelBackgroundColor=none;strokeColor=#0F8B8D;fontColor=#143642;" vertex="1" parent="QWJo6sBRx8cK9oDJyZg6-78">
          <mxGeometry x="30" width="125" height="30" as="geometry">
            <mxRectangle width="125" height="30" as="alternateBounds" />
          </mxGeometry>
        </mxCell>
        <mxCell id="QWJo6sBRx8cK9oDJyZg6-84" value="" style="shape=tableRow;horizontal=0;startSize=0;swimlaneHead=0;swimlaneBody=0;fillColor=none;collapsible=0;dropTarget=0;points=[[0,0.5],[1,0.5]];portConstraint=eastwest;top=0;left=0;right=0;bottom=0;strokeColor=#0F8B8D;fontColor=#143642;rounded=1;enumerate=0;backgroundOutline=0;metaEdit=0;fixDash=0;snapToPoint=1;comic=0;shadow=0;swimlaneLine=1;labelBackgroundColor=none;" vertex="1" parent="QWJo6sBRx8cK9oDJyZg6-71">
          <mxGeometry y="150" width="155" height="30" as="geometry" />
        </mxCell>
        <mxCell id="QWJo6sBRx8cK9oDJyZg6-85" value="" style="shape=partialRectangle;connectable=0;fillColor=none;top=0;left=0;bottom=0;right=0;editable=1;overflow=hidden;strokeColor=#0F8B8D;fontColor=#143642;rounded=1;enumerate=0;backgroundOutline=0;metaEdit=0;fixDash=0;snapToPoint=1;comic=0;shadow=0;swimlaneLine=1;labelBackgroundColor=none;" vertex="1" parent="QWJo6sBRx8cK9oDJyZg6-84">
          <mxGeometry width="30" height="30" as="geometry">
            <mxRectangle width="30" height="30" as="alternateBounds" />
          </mxGeometry>
        </mxCell>
        <mxCell id="QWJo6sBRx8cK9oDJyZg6-86" value="Date_report" style="shape=partialRectangle;connectable=0;fillColor=none;top=0;left=0;bottom=0;right=0;align=left;spacingLeft=6;overflow=hidden;strokeColor=#0F8B8D;fontColor=#143642;rounded=1;enumerate=0;backgroundOutline=0;metaEdit=0;fixDash=0;snapToPoint=1;comic=0;shadow=0;swimlaneLine=1;labelBackgroundColor=none;" vertex="1" parent="QWJo6sBRx8cK9oDJyZg6-84">
          <mxGeometry x="30" width="125" height="30" as="geometry">
            <mxRectangle width="125" height="30" as="alternateBounds" />
          </mxGeometry>
        </mxCell>
        <mxCell id="QWJo6sBRx8cK9oDJyZg6-87" value="" style="shape=tableRow;horizontal=0;startSize=0;swimlaneHead=0;swimlaneBody=0;fillColor=none;collapsible=0;dropTarget=0;points=[[0,0.5],[1,0.5]];portConstraint=eastwest;top=0;left=0;right=0;bottom=0;strokeColor=#0F8B8D;fontColor=#143642;rounded=1;enumerate=0;backgroundOutline=0;metaEdit=0;fixDash=0;snapToPoint=1;comic=0;shadow=0;swimlaneLine=1;labelBackgroundColor=none;" vertex="1" parent="QWJo6sBRx8cK9oDJyZg6-71">
          <mxGeometry y="180" width="155" height="30" as="geometry" />
        </mxCell>
        <mxCell id="QWJo6sBRx8cK9oDJyZg6-88" value="" style="shape=partialRectangle;connectable=0;fillColor=none;top=0;left=0;bottom=0;right=0;editable=1;overflow=hidden;strokeColor=#0F8B8D;fontColor=#143642;rounded=1;enumerate=0;backgroundOutline=0;metaEdit=0;fixDash=0;snapToPoint=1;comic=0;shadow=0;swimlaneLine=1;labelBackgroundColor=none;" vertex="1" parent="QWJo6sBRx8cK9oDJyZg6-87">
          <mxGeometry width="30" height="30" as="geometry">
            <mxRectangle width="30" height="30" as="alternateBounds" />
          </mxGeometry>
        </mxCell>
        <mxCell id="QWJo6sBRx8cK9oDJyZg6-89" value="Description" style="shape=partialRectangle;connectable=0;fillColor=none;top=0;left=0;bottom=0;right=0;align=left;spacingLeft=6;overflow=hidden;strokeColor=#0F8B8D;fontColor=#143642;rounded=1;enumerate=0;backgroundOutline=0;metaEdit=0;fixDash=0;snapToPoint=1;comic=0;shadow=0;swimlaneLine=1;labelBackgroundColor=none;" vertex="1" parent="QWJo6sBRx8cK9oDJyZg6-87">
          <mxGeometry x="30" width="125" height="30" as="geometry">
            <mxRectangle width="125" height="30" as="alternateBounds" />
          </mxGeometry>
        </mxCell>
        <mxCell id="QWJo6sBRx8cK9oDJyZg6-91" style="rounded=1;orthogonalLoop=1;jettySize=auto;html=1;strokeColor=#A8201A;fontColor=default;fillColor=#FAE5C7;enumerate=0;backgroundOutline=0;metaEdit=0;fixDash=0;snapToPoint=0;comic=0;shadow=0;swimlaneLine=1;jumpStyle=line;edgeStyle=orthogonalEdgeStyle;entryX=1;entryY=0.5;entryDx=0;entryDy=0;labelBackgroundColor=none;exitX=1;exitY=0.667;exitDx=0;exitDy=0;exitPerimeter=0;" edge="1" parent="1" source="C-vyLk0tnHw3VtMMgP7b-3" target="QWJo6sBRx8cK9oDJyZg6-78">
          <mxGeometry relative="1" as="geometry">
            <mxPoint x="-80" y="700" as="sourcePoint" />
            <mxPoint x="-690" y="795" as="targetPoint" />
            <Array as="points">
              <mxPoint x="-50" y="690" />
              <mxPoint x="-50" y="840" />
              <mxPoint x="-690" y="840" />
              <mxPoint x="-690" y="625" />
            </Array>
          </mxGeometry>
        </mxCell>
        <mxCell id="QWJo6sBRx8cK9oDJyZg6-92" style="rounded=1;orthogonalLoop=1;jettySize=auto;html=1;strokeColor=#A8201A;fontColor=default;fillColor=#FAE5C7;enumerate=0;backgroundOutline=0;metaEdit=0;fixDash=0;snapToPoint=1;comic=0;shadow=0;swimlaneLine=1;jumpStyle=line;edgeStyle=elbowEdgeStyle;labelBackgroundColor=none;" edge="1" parent="1" source="C-vyLk0tnHw3VtMMgP7b-14" target="QWJo6sBRx8cK9oDJyZg6-81">
          <mxGeometry relative="1" as="geometry">
            <Array as="points">
              <mxPoint x="-690" y="450" />
            </Array>
          </mxGeometry>
        </mxCell>
        <mxCell id="QWJo6sBRx8cK9oDJyZg6-93" value="Cleaning_Session" style="shape=table;startSize=30;container=1;collapsible=1;childLayout=tableLayout;fixedRows=1;rowLines=0;fontStyle=1;align=center;resizeLast=1;rounded=1;enumerate=0;backgroundOutline=0;metaEdit=0;fixDash=0;snapToPoint=1;comic=0;shadow=0;swimlaneLine=1;labelBackgroundColor=none;fillColor=#FAE5C7;strokeColor=#0F8B8D;fontColor=#143642;" vertex="1" parent="1">
          <mxGeometry x="-280" y="230" width="150" height="210" as="geometry" />
        </mxCell>
        <mxCell id="QWJo6sBRx8cK9oDJyZg6-94" value="" style="shape=partialRectangle;collapsible=0;dropTarget=0;pointerEvents=0;fillColor=none;points=[[0,0.5],[1,0.5]];portConstraint=eastwest;top=0;left=0;right=0;bottom=1;rounded=1;enumerate=0;backgroundOutline=0;metaEdit=0;fixDash=0;snapToPoint=1;comic=0;shadow=0;swimlaneLine=1;labelBackgroundColor=none;strokeColor=#0F8B8D;fontColor=#143642;" vertex="1" parent="QWJo6sBRx8cK9oDJyZg6-93">
          <mxGeometry y="30" width="150" height="30" as="geometry" />
        </mxCell>
        <mxCell id="QWJo6sBRx8cK9oDJyZg6-95" value="PK" style="shape=partialRectangle;overflow=hidden;connectable=0;fillColor=none;top=0;left=0;bottom=0;right=0;fontStyle=1;rounded=1;enumerate=0;backgroundOutline=0;metaEdit=0;fixDash=0;snapToPoint=1;comic=0;shadow=0;swimlaneLine=1;labelBackgroundColor=none;strokeColor=#0F8B8D;fontColor=#143642;" vertex="1" parent="QWJo6sBRx8cK9oDJyZg6-94">
          <mxGeometry width="30" height="30" as="geometry">
            <mxRectangle width="30" height="30" as="alternateBounds" />
          </mxGeometry>
        </mxCell>
        <mxCell id="QWJo6sBRx8cK9oDJyZg6-96" value="ID " style="shape=partialRectangle;overflow=hidden;connectable=0;fillColor=none;top=0;left=0;bottom=0;right=0;align=left;spacingLeft=6;fontStyle=5;rounded=1;enumerate=0;backgroundOutline=0;metaEdit=0;fixDash=0;snapToPoint=1;comic=0;shadow=0;swimlaneLine=1;labelBackgroundColor=none;strokeColor=#0F8B8D;fontColor=#143642;" vertex="1" parent="QWJo6sBRx8cK9oDJyZg6-94">
          <mxGeometry x="30" width="120" height="30" as="geometry">
            <mxRectangle width="120" height="30" as="alternateBounds" />
          </mxGeometry>
        </mxCell>
        <mxCell id="QWJo6sBRx8cK9oDJyZg6-100" value="" style="shape=partialRectangle;collapsible=0;dropTarget=0;pointerEvents=0;fillColor=none;points=[[0,0.5],[1,0.5]];portConstraint=eastwest;top=0;left=0;right=0;bottom=0;rounded=1;enumerate=0;backgroundOutline=0;metaEdit=0;fixDash=0;snapToPoint=1;comic=0;shadow=0;swimlaneLine=1;labelBackgroundColor=none;strokeColor=#0F8B8D;fontColor=#143642;" vertex="1" parent="QWJo6sBRx8cK9oDJyZg6-93">
          <mxGeometry y="60" width="150" height="30" as="geometry" />
        </mxCell>
        <mxCell id="QWJo6sBRx8cK9oDJyZg6-101" value="" style="shape=partialRectangle;overflow=hidden;connectable=0;fillColor=none;top=0;left=0;bottom=0;right=0;rounded=1;enumerate=0;backgroundOutline=0;metaEdit=0;fixDash=0;snapToPoint=1;comic=0;shadow=0;swimlaneLine=1;labelBackgroundColor=none;strokeColor=#0F8B8D;fontColor=#143642;" vertex="1" parent="QWJo6sBRx8cK9oDJyZg6-100">
          <mxGeometry width="30" height="30" as="geometry">
            <mxRectangle width="30" height="30" as="alternateBounds" />
          </mxGeometry>
        </mxCell>
        <mxCell id="QWJo6sBRx8cK9oDJyZg6-102" value="Robot_Vacuum_ID " style="shape=partialRectangle;overflow=hidden;connectable=0;fillColor=none;top=0;left=0;bottom=0;right=0;align=left;spacingLeft=6;rounded=1;enumerate=0;backgroundOutline=0;metaEdit=0;fixDash=0;snapToPoint=1;comic=0;shadow=0;swimlaneLine=1;labelBackgroundColor=none;strokeColor=#0F8B8D;fontColor=#143642;" vertex="1" parent="QWJo6sBRx8cK9oDJyZg6-100">
          <mxGeometry x="30" width="120" height="30" as="geometry">
            <mxRectangle width="120" height="30" as="alternateBounds" />
          </mxGeometry>
        </mxCell>
        <mxCell id="QWJo6sBRx8cK9oDJyZg6-103" value="" style="shape=tableRow;horizontal=0;startSize=0;swimlaneHead=0;swimlaneBody=0;fillColor=none;collapsible=0;dropTarget=0;points=[[0,0.5],[1,0.5]];portConstraint=eastwest;top=0;left=0;right=0;bottom=0;strokeColor=#0F8B8D;fontColor=#143642;rounded=1;enumerate=0;backgroundOutline=0;metaEdit=0;fixDash=0;snapToPoint=1;comic=0;shadow=0;swimlaneLine=1;labelBackgroundColor=none;" vertex="1" parent="QWJo6sBRx8cK9oDJyZg6-93">
          <mxGeometry y="90" width="150" height="30" as="geometry" />
        </mxCell>
        <mxCell id="QWJo6sBRx8cK9oDJyZg6-104" value="" style="shape=partialRectangle;connectable=0;fillColor=none;top=0;left=0;bottom=0;right=0;editable=1;overflow=hidden;strokeColor=#0F8B8D;fontColor=#143642;rounded=1;enumerate=0;backgroundOutline=0;metaEdit=0;fixDash=0;snapToPoint=1;comic=0;shadow=0;swimlaneLine=1;labelBackgroundColor=none;" vertex="1" parent="QWJo6sBRx8cK9oDJyZg6-103">
          <mxGeometry width="30" height="30" as="geometry">
            <mxRectangle width="30" height="30" as="alternateBounds" />
          </mxGeometry>
        </mxCell>
        <mxCell id="QWJo6sBRx8cK9oDJyZg6-105" value="Room_ID " style="shape=partialRectangle;connectable=0;fillColor=none;top=0;left=0;bottom=0;right=0;align=left;spacingLeft=6;overflow=hidden;strokeColor=#0F8B8D;fontColor=#143642;rounded=1;enumerate=0;backgroundOutline=0;metaEdit=0;fixDash=0;snapToPoint=1;comic=0;shadow=0;swimlaneLine=1;labelBackgroundColor=none;" vertex="1" parent="QWJo6sBRx8cK9oDJyZg6-103">
          <mxGeometry x="30" width="120" height="30" as="geometry">
            <mxRectangle width="120" height="30" as="alternateBounds" />
          </mxGeometry>
        </mxCell>
        <mxCell id="QWJo6sBRx8cK9oDJyZg6-97" value="" style="shape=partialRectangle;collapsible=0;dropTarget=0;pointerEvents=0;fillColor=none;points=[[0,0.5],[1,0.5]];portConstraint=eastwest;top=0;left=0;right=0;bottom=0;rounded=1;enumerate=0;backgroundOutline=0;metaEdit=0;fixDash=0;snapToPoint=1;comic=0;shadow=0;swimlaneLine=1;labelBackgroundColor=none;strokeColor=#0F8B8D;fontColor=#143642;" vertex="1" parent="QWJo6sBRx8cK9oDJyZg6-93">
          <mxGeometry y="120" width="150" height="30" as="geometry" />
        </mxCell>
        <mxCell id="QWJo6sBRx8cK9oDJyZg6-98" value="" style="shape=partialRectangle;overflow=hidden;connectable=0;fillColor=none;top=0;left=0;bottom=0;right=0;rounded=1;enumerate=0;backgroundOutline=0;metaEdit=0;fixDash=0;snapToPoint=1;comic=0;shadow=0;swimlaneLine=1;labelBackgroundColor=none;strokeColor=#0F8B8D;fontColor=#143642;" vertex="1" parent="QWJo6sBRx8cK9oDJyZg6-97">
          <mxGeometry width="30" height="30" as="geometry">
            <mxRectangle width="30" height="30" as="alternateBounds" />
          </mxGeometry>
        </mxCell>
        <mxCell id="QWJo6sBRx8cK9oDJyZg6-99" value="Start_time " style="shape=partialRectangle;overflow=hidden;connectable=0;fillColor=none;top=0;left=0;bottom=0;right=0;align=left;spacingLeft=6;rounded=1;enumerate=0;backgroundOutline=0;metaEdit=0;fixDash=0;snapToPoint=1;comic=0;shadow=0;swimlaneLine=1;labelBackgroundColor=none;strokeColor=#0F8B8D;fontColor=#143642;" vertex="1" parent="QWJo6sBRx8cK9oDJyZg6-97">
          <mxGeometry x="30" width="120" height="30" as="geometry">
            <mxRectangle width="120" height="30" as="alternateBounds" />
          </mxGeometry>
        </mxCell>
        <mxCell id="QWJo6sBRx8cK9oDJyZg6-106" value="" style="shape=tableRow;horizontal=0;startSize=0;swimlaneHead=0;swimlaneBody=0;fillColor=none;collapsible=0;dropTarget=0;points=[[0,0.5],[1,0.5]];portConstraint=eastwest;top=0;left=0;right=0;bottom=0;strokeColor=#0F8B8D;fontColor=#143642;rounded=1;enumerate=0;backgroundOutline=0;metaEdit=0;fixDash=0;snapToPoint=1;comic=0;shadow=0;swimlaneLine=1;labelBackgroundColor=none;" vertex="1" parent="QWJo6sBRx8cK9oDJyZg6-93">
          <mxGeometry y="150" width="150" height="30" as="geometry" />
        </mxCell>
        <mxCell id="QWJo6sBRx8cK9oDJyZg6-107" value="" style="shape=partialRectangle;connectable=0;fillColor=none;top=0;left=0;bottom=0;right=0;editable=1;overflow=hidden;strokeColor=#0F8B8D;fontColor=#143642;rounded=1;enumerate=0;backgroundOutline=0;metaEdit=0;fixDash=0;snapToPoint=1;comic=0;shadow=0;swimlaneLine=1;labelBackgroundColor=none;" vertex="1" parent="QWJo6sBRx8cK9oDJyZg6-106">
          <mxGeometry width="30" height="30" as="geometry">
            <mxRectangle width="30" height="30" as="alternateBounds" />
          </mxGeometry>
        </mxCell>
        <mxCell id="QWJo6sBRx8cK9oDJyZg6-108" value="End_time " style="shape=partialRectangle;connectable=0;fillColor=none;top=0;left=0;bottom=0;right=0;align=left;spacingLeft=6;overflow=hidden;strokeColor=#0F8B8D;fontColor=#143642;rounded=1;enumerate=0;backgroundOutline=0;metaEdit=0;fixDash=0;snapToPoint=1;comic=0;shadow=0;swimlaneLine=1;labelBackgroundColor=none;" vertex="1" parent="QWJo6sBRx8cK9oDJyZg6-106">
          <mxGeometry x="30" width="120" height="30" as="geometry">
            <mxRectangle width="120" height="30" as="alternateBounds" />
          </mxGeometry>
        </mxCell>
        <mxCell id="QWJo6sBRx8cK9oDJyZg6-109" value="" style="shape=tableRow;horizontal=0;startSize=0;swimlaneHead=0;swimlaneBody=0;fillColor=none;collapsible=0;dropTarget=0;points=[[0,0.5],[1,0.5]];portConstraint=eastwest;top=0;left=0;right=0;bottom=0;strokeColor=#0F8B8D;fontColor=#143642;rounded=1;enumerate=0;backgroundOutline=0;metaEdit=0;fixDash=0;snapToPoint=1;comic=0;shadow=0;swimlaneLine=1;labelBackgroundColor=none;" vertex="1" parent="QWJo6sBRx8cK9oDJyZg6-93">
          <mxGeometry y="180" width="150" height="30" as="geometry" />
        </mxCell>
        <mxCell id="QWJo6sBRx8cK9oDJyZg6-110" value="" style="shape=partialRectangle;connectable=0;fillColor=none;top=0;left=0;bottom=0;right=0;editable=1;overflow=hidden;strokeColor=#0F8B8D;fontColor=#143642;rounded=1;enumerate=0;backgroundOutline=0;metaEdit=0;fixDash=0;snapToPoint=1;comic=0;shadow=0;swimlaneLine=1;labelBackgroundColor=none;" vertex="1" parent="QWJo6sBRx8cK9oDJyZg6-109">
          <mxGeometry width="30" height="30" as="geometry">
            <mxRectangle width="30" height="30" as="alternateBounds" />
          </mxGeometry>
        </mxCell>
        <mxCell id="QWJo6sBRx8cK9oDJyZg6-111" value="Status " style="shape=partialRectangle;connectable=0;fillColor=none;top=0;left=0;bottom=0;right=0;align=left;spacingLeft=6;overflow=hidden;strokeColor=#0F8B8D;fontColor=#143642;rounded=1;enumerate=0;backgroundOutline=0;metaEdit=0;fixDash=0;snapToPoint=1;comic=0;shadow=0;swimlaneLine=1;labelBackgroundColor=none;" vertex="1" parent="QWJo6sBRx8cK9oDJyZg6-109">
          <mxGeometry x="30" width="120" height="30" as="geometry">
            <mxRectangle width="120" height="30" as="alternateBounds" />
          </mxGeometry>
        </mxCell>
        <mxCell id="QWJo6sBRx8cK9oDJyZg6-112" value="Zone" style="shape=table;startSize=30;container=1;collapsible=1;childLayout=tableLayout;fixedRows=1;rowLines=0;fontStyle=1;align=center;resizeLast=1;rounded=1;enumerate=0;backgroundOutline=0;metaEdit=0;fixDash=0;snapToPoint=1;comic=0;shadow=0;swimlaneLine=1;labelBackgroundColor=none;fillColor=#FAE5C7;strokeColor=#0F8B8D;fontColor=#143642;" vertex="1" parent="1">
          <mxGeometry x="-855" y="290" width="140" height="180" as="geometry" />
        </mxCell>
        <mxCell id="QWJo6sBRx8cK9oDJyZg6-113" value="" style="shape=partialRectangle;collapsible=0;dropTarget=0;pointerEvents=0;fillColor=none;points=[[0,0.5],[1,0.5]];portConstraint=eastwest;top=0;left=0;right=0;bottom=1;rounded=1;enumerate=0;backgroundOutline=0;metaEdit=0;fixDash=0;snapToPoint=1;comic=0;shadow=0;swimlaneLine=1;labelBackgroundColor=none;strokeColor=#0F8B8D;fontColor=#143642;" vertex="1" parent="QWJo6sBRx8cK9oDJyZg6-112">
          <mxGeometry y="30" width="140" height="30" as="geometry" />
        </mxCell>
        <mxCell id="QWJo6sBRx8cK9oDJyZg6-114" value="PK" style="shape=partialRectangle;overflow=hidden;connectable=0;fillColor=none;top=0;left=0;bottom=0;right=0;fontStyle=1;rounded=1;enumerate=0;backgroundOutline=0;metaEdit=0;fixDash=0;snapToPoint=1;comic=0;shadow=0;swimlaneLine=1;labelBackgroundColor=none;strokeColor=#0F8B8D;fontColor=#143642;" vertex="1" parent="QWJo6sBRx8cK9oDJyZg6-113">
          <mxGeometry width="30" height="30" as="geometry">
            <mxRectangle width="30" height="30" as="alternateBounds" />
          </mxGeometry>
        </mxCell>
        <mxCell id="QWJo6sBRx8cK9oDJyZg6-115" value="ID " style="shape=partialRectangle;overflow=hidden;connectable=0;fillColor=none;top=0;left=0;bottom=0;right=0;align=left;spacingLeft=6;fontStyle=5;rounded=1;enumerate=0;backgroundOutline=0;metaEdit=0;fixDash=0;snapToPoint=1;comic=0;shadow=0;swimlaneLine=1;labelBackgroundColor=none;strokeColor=#0F8B8D;fontColor=#143642;" vertex="1" parent="QWJo6sBRx8cK9oDJyZg6-113">
          <mxGeometry x="30" width="110" height="30" as="geometry">
            <mxRectangle width="110" height="30" as="alternateBounds" />
          </mxGeometry>
        </mxCell>
        <mxCell id="QWJo6sBRx8cK9oDJyZg6-116" value="" style="shape=partialRectangle;collapsible=0;dropTarget=0;pointerEvents=0;fillColor=none;points=[[0,0.5],[1,0.5]];portConstraint=eastwest;top=0;left=0;right=0;bottom=0;rounded=1;enumerate=0;backgroundOutline=0;metaEdit=0;fixDash=0;snapToPoint=1;comic=0;shadow=0;swimlaneLine=1;labelBackgroundColor=none;strokeColor=#0F8B8D;fontColor=#143642;" vertex="1" parent="QWJo6sBRx8cK9oDJyZg6-112">
          <mxGeometry y="60" width="140" height="30" as="geometry" />
        </mxCell>
        <mxCell id="QWJo6sBRx8cK9oDJyZg6-117" value="" style="shape=partialRectangle;overflow=hidden;connectable=0;fillColor=none;top=0;left=0;bottom=0;right=0;rounded=1;enumerate=0;backgroundOutline=0;metaEdit=0;fixDash=0;snapToPoint=1;comic=0;shadow=0;swimlaneLine=1;labelBackgroundColor=none;strokeColor=#0F8B8D;fontColor=#143642;" vertex="1" parent="QWJo6sBRx8cK9oDJyZg6-116">
          <mxGeometry width="30" height="30" as="geometry">
            <mxRectangle width="30" height="30" as="alternateBounds" />
          </mxGeometry>
        </mxCell>
        <mxCell id="QWJo6sBRx8cK9oDJyZg6-118" value="Room_ID" style="shape=partialRectangle;overflow=hidden;connectable=0;fillColor=none;top=0;left=0;bottom=0;right=0;align=left;spacingLeft=6;rounded=1;enumerate=0;backgroundOutline=0;metaEdit=0;fixDash=0;snapToPoint=1;comic=0;shadow=0;swimlaneLine=1;labelBackgroundColor=none;strokeColor=#0F8B8D;fontColor=#143642;" vertex="1" parent="QWJo6sBRx8cK9oDJyZg6-116">
          <mxGeometry x="30" width="110" height="30" as="geometry">
            <mxRectangle width="110" height="30" as="alternateBounds" />
          </mxGeometry>
        </mxCell>
        <mxCell id="QWJo6sBRx8cK9oDJyZg6-119" value="" style="shape=partialRectangle;collapsible=0;dropTarget=0;pointerEvents=0;fillColor=none;points=[[0,0.5],[1,0.5]];portConstraint=eastwest;top=0;left=0;right=0;bottom=0;rounded=1;enumerate=0;backgroundOutline=0;metaEdit=0;fixDash=0;snapToPoint=1;comic=0;shadow=0;swimlaneLine=1;labelBackgroundColor=none;strokeColor=#0F8B8D;fontColor=#143642;" vertex="1" parent="QWJo6sBRx8cK9oDJyZg6-112">
          <mxGeometry y="90" width="140" height="30" as="geometry" />
        </mxCell>
        <mxCell id="QWJo6sBRx8cK9oDJyZg6-120" value="" style="shape=partialRectangle;overflow=hidden;connectable=0;fillColor=none;top=0;left=0;bottom=0;right=0;rounded=1;enumerate=0;backgroundOutline=0;metaEdit=0;fixDash=0;snapToPoint=1;comic=0;shadow=0;swimlaneLine=1;labelBackgroundColor=none;strokeColor=#0F8B8D;fontColor=#143642;" vertex="1" parent="QWJo6sBRx8cK9oDJyZg6-119">
          <mxGeometry width="30" height="30" as="geometry">
            <mxRectangle width="30" height="30" as="alternateBounds" />
          </mxGeometry>
        </mxCell>
        <mxCell id="QWJo6sBRx8cK9oDJyZg6-121" value="Name_zone " style="shape=partialRectangle;overflow=hidden;connectable=0;fillColor=none;top=0;left=0;bottom=0;right=0;align=left;spacingLeft=6;rounded=1;enumerate=0;backgroundOutline=0;metaEdit=0;fixDash=0;snapToPoint=1;comic=0;shadow=0;swimlaneLine=1;labelBackgroundColor=none;strokeColor=#0F8B8D;fontColor=#143642;" vertex="1" parent="QWJo6sBRx8cK9oDJyZg6-119">
          <mxGeometry x="30" width="110" height="30" as="geometry">
            <mxRectangle width="110" height="30" as="alternateBounds" />
          </mxGeometry>
        </mxCell>
        <mxCell id="QWJo6sBRx8cK9oDJyZg6-122" value="" style="shape=tableRow;horizontal=0;startSize=0;swimlaneHead=0;swimlaneBody=0;fillColor=none;collapsible=0;dropTarget=0;points=[[0,0.5],[1,0.5]];portConstraint=eastwest;top=0;left=0;right=0;bottom=0;strokeColor=#0F8B8D;fontColor=#143642;rounded=1;enumerate=0;backgroundOutline=0;metaEdit=0;fixDash=0;snapToPoint=1;comic=0;shadow=0;swimlaneLine=1;labelBackgroundColor=none;" vertex="1" parent="QWJo6sBRx8cK9oDJyZg6-112">
          <mxGeometry y="120" width="140" height="30" as="geometry" />
        </mxCell>
        <mxCell id="QWJo6sBRx8cK9oDJyZg6-123" value="" style="shape=partialRectangle;connectable=0;fillColor=none;top=0;left=0;bottom=0;right=0;editable=1;overflow=hidden;strokeColor=#0F8B8D;fontColor=#143642;rounded=1;enumerate=0;backgroundOutline=0;metaEdit=0;fixDash=0;snapToPoint=1;comic=0;shadow=0;swimlaneLine=1;labelBackgroundColor=none;" vertex="1" parent="QWJo6sBRx8cK9oDJyZg6-122">
          <mxGeometry width="30" height="30" as="geometry">
            <mxRectangle width="30" height="30" as="alternateBounds" />
          </mxGeometry>
        </mxCell>
        <mxCell id="QWJo6sBRx8cK9oDJyZg6-124" value="Zone_area " style="shape=partialRectangle;connectable=0;fillColor=none;top=0;left=0;bottom=0;right=0;align=left;spacingLeft=6;overflow=hidden;strokeColor=#0F8B8D;fontColor=#143642;rounded=1;enumerate=0;backgroundOutline=0;metaEdit=0;fixDash=0;snapToPoint=1;comic=0;shadow=0;swimlaneLine=1;labelBackgroundColor=none;" vertex="1" parent="QWJo6sBRx8cK9oDJyZg6-122">
          <mxGeometry x="30" width="110" height="30" as="geometry">
            <mxRectangle width="110" height="30" as="alternateBounds" />
          </mxGeometry>
        </mxCell>
        <mxCell id="QWJo6sBRx8cK9oDJyZg6-125" value="" style="shape=tableRow;horizontal=0;startSize=0;swimlaneHead=0;swimlaneBody=0;fillColor=none;collapsible=0;dropTarget=0;points=[[0,0.5],[1,0.5]];portConstraint=eastwest;top=0;left=0;right=0;bottom=0;strokeColor=#0F8B8D;fontColor=#143642;rounded=1;enumerate=0;backgroundOutline=0;metaEdit=0;fixDash=0;snapToPoint=1;comic=0;shadow=0;swimlaneLine=1;labelBackgroundColor=none;" vertex="1" parent="QWJo6sBRx8cK9oDJyZg6-112">
          <mxGeometry y="150" width="140" height="30" as="geometry" />
        </mxCell>
        <mxCell id="QWJo6sBRx8cK9oDJyZg6-126" value="" style="shape=partialRectangle;connectable=0;fillColor=none;top=0;left=0;bottom=0;right=0;editable=1;overflow=hidden;strokeColor=#0F8B8D;fontColor=#143642;rounded=1;enumerate=0;backgroundOutline=0;metaEdit=0;fixDash=0;snapToPoint=1;comic=0;shadow=0;swimlaneLine=1;labelBackgroundColor=none;" vertex="1" parent="QWJo6sBRx8cK9oDJyZg6-125">
          <mxGeometry width="30" height="30" as="geometry">
            <mxRectangle width="30" height="30" as="alternateBounds" />
          </mxGeometry>
        </mxCell>
        <mxCell id="QWJo6sBRx8cK9oDJyZg6-127" value="Cleaning_mode " style="shape=partialRectangle;connectable=0;fillColor=none;top=0;left=0;bottom=0;right=0;align=left;spacingLeft=6;overflow=hidden;strokeColor=#0F8B8D;fontColor=#143642;rounded=1;enumerate=0;backgroundOutline=0;metaEdit=0;fixDash=0;snapToPoint=1;comic=0;shadow=0;swimlaneLine=1;labelBackgroundColor=none;" vertex="1" parent="QWJo6sBRx8cK9oDJyZg6-125">
          <mxGeometry x="30" width="110" height="30" as="geometry">
            <mxRectangle width="110" height="30" as="alternateBounds" />
          </mxGeometry>
        </mxCell>
        <mxCell id="QWJo6sBRx8cK9oDJyZg6-128" value="Maintenance" style="shape=table;startSize=30;container=1;collapsible=1;childLayout=tableLayout;fixedRows=1;rowLines=0;fontStyle=1;align=center;resizeLast=1;rounded=1;enumerate=0;backgroundOutline=0;metaEdit=0;fixDash=0;snapToPoint=1;comic=0;shadow=0;swimlaneLine=1;labelBackgroundColor=none;fillColor=#FAE5C7;strokeColor=#0F8B8D;fontColor=#143642;" vertex="1" parent="1">
          <mxGeometry x="-280" y="480" width="190" height="150" as="geometry" />
        </mxCell>
        <mxCell id="QWJo6sBRx8cK9oDJyZg6-129" value="" style="shape=partialRectangle;collapsible=0;dropTarget=0;pointerEvents=0;fillColor=none;points=[[0,0.5],[1,0.5]];portConstraint=eastwest;top=0;left=0;right=0;bottom=1;rounded=1;enumerate=0;backgroundOutline=0;metaEdit=0;fixDash=0;snapToPoint=1;comic=0;shadow=0;swimlaneLine=1;labelBackgroundColor=none;strokeColor=#0F8B8D;fontColor=#143642;" vertex="1" parent="QWJo6sBRx8cK9oDJyZg6-128">
          <mxGeometry y="30" width="190" height="30" as="geometry" />
        </mxCell>
        <mxCell id="QWJo6sBRx8cK9oDJyZg6-130" value="PK" style="shape=partialRectangle;overflow=hidden;connectable=0;fillColor=none;top=0;left=0;bottom=0;right=0;fontStyle=1;rounded=1;enumerate=0;backgroundOutline=0;metaEdit=0;fixDash=0;snapToPoint=1;comic=0;shadow=0;swimlaneLine=1;labelBackgroundColor=none;strokeColor=#0F8B8D;fontColor=#143642;" vertex="1" parent="QWJo6sBRx8cK9oDJyZg6-129">
          <mxGeometry width="30" height="30" as="geometry">
            <mxRectangle width="30" height="30" as="alternateBounds" />
          </mxGeometry>
        </mxCell>
        <mxCell id="QWJo6sBRx8cK9oDJyZg6-131" value="ID " style="shape=partialRectangle;overflow=hidden;connectable=0;fillColor=none;top=0;left=0;bottom=0;right=0;align=left;spacingLeft=6;fontStyle=5;rounded=1;enumerate=0;backgroundOutline=0;metaEdit=0;fixDash=0;snapToPoint=1;comic=0;shadow=0;swimlaneLine=1;labelBackgroundColor=none;strokeColor=#0F8B8D;fontColor=#143642;" vertex="1" parent="QWJo6sBRx8cK9oDJyZg6-129">
          <mxGeometry x="30" width="160" height="30" as="geometry">
            <mxRectangle width="160" height="30" as="alternateBounds" />
          </mxGeometry>
        </mxCell>
        <mxCell id="QWJo6sBRx8cK9oDJyZg6-132" value="" style="shape=partialRectangle;collapsible=0;dropTarget=0;pointerEvents=0;fillColor=none;points=[[0,0.5],[1,0.5]];portConstraint=eastwest;top=0;left=0;right=0;bottom=0;rounded=1;enumerate=0;backgroundOutline=0;metaEdit=0;fixDash=0;snapToPoint=1;comic=0;shadow=0;swimlaneLine=1;labelBackgroundColor=none;strokeColor=#0F8B8D;fontColor=#143642;" vertex="1" parent="QWJo6sBRx8cK9oDJyZg6-128">
          <mxGeometry y="60" width="190" height="30" as="geometry" />
        </mxCell>
        <mxCell id="QWJo6sBRx8cK9oDJyZg6-133" value="" style="shape=partialRectangle;overflow=hidden;connectable=0;fillColor=none;top=0;left=0;bottom=0;right=0;rounded=1;enumerate=0;backgroundOutline=0;metaEdit=0;fixDash=0;snapToPoint=1;comic=0;shadow=0;swimlaneLine=1;labelBackgroundColor=none;strokeColor=#0F8B8D;fontColor=#143642;" vertex="1" parent="QWJo6sBRx8cK9oDJyZg6-132">
          <mxGeometry width="30" height="30" as="geometry">
            <mxRectangle width="30" height="30" as="alternateBounds" />
          </mxGeometry>
        </mxCell>
        <mxCell id="QWJo6sBRx8cK9oDJyZg6-134" value="Robot_Vacuum_ID" style="shape=partialRectangle;overflow=hidden;connectable=0;fillColor=none;top=0;left=0;bottom=0;right=0;align=left;spacingLeft=6;rounded=1;enumerate=0;backgroundOutline=0;metaEdit=0;fixDash=0;snapToPoint=1;comic=0;shadow=0;swimlaneLine=1;labelBackgroundColor=none;strokeColor=#0F8B8D;fontColor=#143642;" vertex="1" parent="QWJo6sBRx8cK9oDJyZg6-132">
          <mxGeometry x="30" width="160" height="30" as="geometry">
            <mxRectangle width="160" height="30" as="alternateBounds" />
          </mxGeometry>
        </mxCell>
        <mxCell id="QWJo6sBRx8cK9oDJyZg6-135" value="" style="shape=partialRectangle;collapsible=0;dropTarget=0;pointerEvents=0;fillColor=none;points=[[0,0.5],[1,0.5]];portConstraint=eastwest;top=0;left=0;right=0;bottom=0;rounded=1;enumerate=0;backgroundOutline=0;metaEdit=0;fixDash=0;snapToPoint=1;comic=0;shadow=0;swimlaneLine=1;labelBackgroundColor=none;strokeColor=#0F8B8D;fontColor=#143642;" vertex="1" parent="QWJo6sBRx8cK9oDJyZg6-128">
          <mxGeometry y="90" width="190" height="30" as="geometry" />
        </mxCell>
        <mxCell id="QWJo6sBRx8cK9oDJyZg6-136" value="" style="shape=partialRectangle;overflow=hidden;connectable=0;fillColor=none;top=0;left=0;bottom=0;right=0;rounded=1;enumerate=0;backgroundOutline=0;metaEdit=0;fixDash=0;snapToPoint=1;comic=0;shadow=0;swimlaneLine=1;labelBackgroundColor=none;strokeColor=#0F8B8D;fontColor=#143642;" vertex="1" parent="QWJo6sBRx8cK9oDJyZg6-135">
          <mxGeometry width="30" height="30" as="geometry">
            <mxRectangle width="30" height="30" as="alternateBounds" />
          </mxGeometry>
        </mxCell>
        <mxCell id="QWJo6sBRx8cK9oDJyZg6-137" value="Maintenance_date " style="shape=partialRectangle;overflow=hidden;connectable=0;fillColor=none;top=0;left=0;bottom=0;right=0;align=left;spacingLeft=6;rounded=1;enumerate=0;backgroundOutline=0;metaEdit=0;fixDash=0;snapToPoint=1;comic=0;shadow=0;swimlaneLine=1;labelBackgroundColor=none;strokeColor=#0F8B8D;fontColor=#143642;" vertex="1" parent="QWJo6sBRx8cK9oDJyZg6-135">
          <mxGeometry x="30" width="160" height="30" as="geometry">
            <mxRectangle width="160" height="30" as="alternateBounds" />
          </mxGeometry>
        </mxCell>
        <mxCell id="QWJo6sBRx8cK9oDJyZg6-138" value="" style="shape=tableRow;horizontal=0;startSize=0;swimlaneHead=0;swimlaneBody=0;fillColor=none;collapsible=0;dropTarget=0;points=[[0,0.5],[1,0.5]];portConstraint=eastwest;top=0;left=0;right=0;bottom=0;strokeColor=#0F8B8D;fontColor=#143642;rounded=1;enumerate=0;backgroundOutline=0;metaEdit=0;fixDash=0;snapToPoint=1;comic=0;shadow=0;swimlaneLine=1;labelBackgroundColor=none;" vertex="1" parent="QWJo6sBRx8cK9oDJyZg6-128">
          <mxGeometry y="120" width="190" height="30" as="geometry" />
        </mxCell>
        <mxCell id="QWJo6sBRx8cK9oDJyZg6-139" value="" style="shape=partialRectangle;connectable=0;fillColor=none;top=0;left=0;bottom=0;right=0;editable=1;overflow=hidden;strokeColor=#0F8B8D;fontColor=#143642;rounded=1;enumerate=0;backgroundOutline=0;metaEdit=0;fixDash=0;snapToPoint=1;comic=0;shadow=0;swimlaneLine=1;labelBackgroundColor=none;" vertex="1" parent="QWJo6sBRx8cK9oDJyZg6-138">
          <mxGeometry width="30" height="30" as="geometry">
            <mxRectangle width="30" height="30" as="alternateBounds" />
          </mxGeometry>
        </mxCell>
        <mxCell id="QWJo6sBRx8cK9oDJyZg6-140" value="Maintenance_description " style="shape=partialRectangle;connectable=0;fillColor=none;top=0;left=0;bottom=0;right=0;align=left;spacingLeft=6;overflow=hidden;strokeColor=#0F8B8D;fontColor=#143642;rounded=1;enumerate=0;backgroundOutline=0;metaEdit=0;fixDash=0;snapToPoint=1;comic=0;shadow=0;swimlaneLine=1;labelBackgroundColor=none;" vertex="1" parent="QWJo6sBRx8cK9oDJyZg6-138">
          <mxGeometry x="30" width="160" height="30" as="geometry">
            <mxRectangle width="160" height="30" as="alternateBounds" />
          </mxGeometry>
        </mxCell>
        <mxCell id="QWJo6sBRx8cK9oDJyZg6-141" value="User_Settings" style="shape=table;startSize=30;container=1;collapsible=1;childLayout=tableLayout;fixedRows=1;rowLines=0;fontStyle=1;align=center;resizeLast=1;rounded=1;enumerate=0;backgroundOutline=0;metaEdit=0;fixDash=0;snapToPoint=1;comic=0;shadow=0;swimlaneLine=1;labelBackgroundColor=none;fillColor=#FAE5C7;strokeColor=#0F8B8D;fontColor=#143642;" vertex="1" parent="1">
          <mxGeometry x="-680" y="10" width="180" height="180" as="geometry" />
        </mxCell>
        <mxCell id="QWJo6sBRx8cK9oDJyZg6-142" value="" style="shape=partialRectangle;collapsible=0;dropTarget=0;pointerEvents=0;fillColor=none;points=[[0,0.5],[1,0.5]];portConstraint=eastwest;top=0;left=0;right=0;bottom=1;rounded=1;enumerate=0;backgroundOutline=0;metaEdit=0;fixDash=0;snapToPoint=1;comic=0;shadow=0;swimlaneLine=1;labelBackgroundColor=none;strokeColor=#0F8B8D;fontColor=#143642;" vertex="1" parent="QWJo6sBRx8cK9oDJyZg6-141">
          <mxGeometry y="30" width="180" height="30" as="geometry" />
        </mxCell>
        <mxCell id="QWJo6sBRx8cK9oDJyZg6-143" value="PK" style="shape=partialRectangle;overflow=hidden;connectable=0;fillColor=none;top=0;left=0;bottom=0;right=0;fontStyle=1;rounded=1;enumerate=0;backgroundOutline=0;metaEdit=0;fixDash=0;snapToPoint=1;comic=0;shadow=0;swimlaneLine=1;labelBackgroundColor=none;strokeColor=#0F8B8D;fontColor=#143642;" vertex="1" parent="QWJo6sBRx8cK9oDJyZg6-142">
          <mxGeometry width="30" height="30" as="geometry">
            <mxRectangle width="30" height="30" as="alternateBounds" />
          </mxGeometry>
        </mxCell>
        <mxCell id="QWJo6sBRx8cK9oDJyZg6-144" value="ID " style="shape=partialRectangle;overflow=hidden;connectable=0;fillColor=none;top=0;left=0;bottom=0;right=0;align=left;spacingLeft=6;fontStyle=5;rounded=1;enumerate=0;backgroundOutline=0;metaEdit=0;fixDash=0;snapToPoint=1;comic=0;shadow=0;swimlaneLine=1;labelBackgroundColor=none;strokeColor=#0F8B8D;fontColor=#143642;" vertex="1" parent="QWJo6sBRx8cK9oDJyZg6-142">
          <mxGeometry x="30" width="150" height="30" as="geometry">
            <mxRectangle width="150" height="30" as="alternateBounds" />
          </mxGeometry>
        </mxCell>
        <mxCell id="QWJo6sBRx8cK9oDJyZg6-145" value="" style="shape=partialRectangle;collapsible=0;dropTarget=0;pointerEvents=0;fillColor=none;points=[[0,0.5],[1,0.5]];portConstraint=eastwest;top=0;left=0;right=0;bottom=0;rounded=1;enumerate=0;backgroundOutline=0;metaEdit=0;fixDash=0;snapToPoint=1;comic=0;shadow=0;swimlaneLine=1;labelBackgroundColor=none;strokeColor=#0F8B8D;fontColor=#143642;" vertex="1" parent="QWJo6sBRx8cK9oDJyZg6-141">
          <mxGeometry y="60" width="180" height="30" as="geometry" />
        </mxCell>
        <mxCell id="QWJo6sBRx8cK9oDJyZg6-146" value="" style="shape=partialRectangle;overflow=hidden;connectable=0;fillColor=none;top=0;left=0;bottom=0;right=0;rounded=1;enumerate=0;backgroundOutline=0;metaEdit=0;fixDash=0;snapToPoint=1;comic=0;shadow=0;swimlaneLine=1;labelBackgroundColor=none;strokeColor=#0F8B8D;fontColor=#143642;" vertex="1" parent="QWJo6sBRx8cK9oDJyZg6-145">
          <mxGeometry width="30" height="30" as="geometry">
            <mxRectangle width="30" height="30" as="alternateBounds" />
          </mxGeometry>
        </mxCell>
        <mxCell id="QWJo6sBRx8cK9oDJyZg6-147" value="User_group_ID" style="shape=partialRectangle;overflow=hidden;connectable=0;fillColor=none;top=0;left=0;bottom=0;right=0;align=left;spacingLeft=6;rounded=1;enumerate=0;backgroundOutline=0;metaEdit=0;fixDash=0;snapToPoint=1;comic=0;shadow=0;swimlaneLine=1;labelBackgroundColor=none;strokeColor=#0F8B8D;fontColor=#143642;" vertex="1" parent="QWJo6sBRx8cK9oDJyZg6-145">
          <mxGeometry x="30" width="150" height="30" as="geometry">
            <mxRectangle width="150" height="30" as="alternateBounds" />
          </mxGeometry>
        </mxCell>
        <mxCell id="QWJo6sBRx8cK9oDJyZg6-148" value="" style="shape=partialRectangle;collapsible=0;dropTarget=0;pointerEvents=0;fillColor=none;points=[[0,0.5],[1,0.5]];portConstraint=eastwest;top=0;left=0;right=0;bottom=0;rounded=1;enumerate=0;backgroundOutline=0;metaEdit=0;fixDash=0;snapToPoint=1;comic=0;shadow=0;swimlaneLine=1;labelBackgroundColor=none;strokeColor=#0F8B8D;fontColor=#143642;" vertex="1" parent="QWJo6sBRx8cK9oDJyZg6-141">
          <mxGeometry y="90" width="180" height="30" as="geometry" />
        </mxCell>
        <mxCell id="QWJo6sBRx8cK9oDJyZg6-149" value="" style="shape=partialRectangle;overflow=hidden;connectable=0;fillColor=none;top=0;left=0;bottom=0;right=0;rounded=1;enumerate=0;backgroundOutline=0;metaEdit=0;fixDash=0;snapToPoint=1;comic=0;shadow=0;swimlaneLine=1;labelBackgroundColor=none;strokeColor=#0F8B8D;fontColor=#143642;" vertex="1" parent="QWJo6sBRx8cK9oDJyZg6-148">
          <mxGeometry width="30" height="30" as="geometry">
            <mxRectangle width="30" height="30" as="alternateBounds" />
          </mxGeometry>
        </mxCell>
        <mxCell id="QWJo6sBRx8cK9oDJyZg6-150" value="Robot_Vacuum_ID " style="shape=partialRectangle;overflow=hidden;connectable=0;fillColor=none;top=0;left=0;bottom=0;right=0;align=left;spacingLeft=6;rounded=1;enumerate=0;backgroundOutline=0;metaEdit=0;fixDash=0;snapToPoint=1;comic=0;shadow=0;swimlaneLine=1;labelBackgroundColor=none;strokeColor=#0F8B8D;fontColor=#143642;" vertex="1" parent="QWJo6sBRx8cK9oDJyZg6-148">
          <mxGeometry x="30" width="150" height="30" as="geometry">
            <mxRectangle width="150" height="30" as="alternateBounds" />
          </mxGeometry>
        </mxCell>
        <mxCell id="QWJo6sBRx8cK9oDJyZg6-151" value="" style="shape=tableRow;horizontal=0;startSize=0;swimlaneHead=0;swimlaneBody=0;fillColor=none;collapsible=0;dropTarget=0;points=[[0,0.5],[1,0.5]];portConstraint=eastwest;top=0;left=0;right=0;bottom=0;strokeColor=#0F8B8D;fontColor=#143642;rounded=1;enumerate=0;backgroundOutline=0;metaEdit=0;fixDash=0;snapToPoint=1;comic=0;shadow=0;swimlaneLine=1;labelBackgroundColor=none;" vertex="1" parent="QWJo6sBRx8cK9oDJyZg6-141">
          <mxGeometry y="120" width="180" height="30" as="geometry" />
        </mxCell>
        <mxCell id="QWJo6sBRx8cK9oDJyZg6-152" value="" style="shape=partialRectangle;connectable=0;fillColor=none;top=0;left=0;bottom=0;right=0;editable=1;overflow=hidden;strokeColor=#0F8B8D;fontColor=#143642;rounded=1;enumerate=0;backgroundOutline=0;metaEdit=0;fixDash=0;snapToPoint=1;comic=0;shadow=0;swimlaneLine=1;labelBackgroundColor=none;" vertex="1" parent="QWJo6sBRx8cK9oDJyZg6-151">
          <mxGeometry width="30" height="30" as="geometry">
            <mxRectangle width="30" height="30" as="alternateBounds" />
          </mxGeometry>
        </mxCell>
        <mxCell id="QWJo6sBRx8cK9oDJyZg6-153" value="Language " style="shape=partialRectangle;connectable=0;fillColor=none;top=0;left=0;bottom=0;right=0;align=left;spacingLeft=6;overflow=hidden;strokeColor=#0F8B8D;fontColor=#143642;rounded=1;enumerate=0;backgroundOutline=0;metaEdit=0;fixDash=0;snapToPoint=1;comic=0;shadow=0;swimlaneLine=1;labelBackgroundColor=none;" vertex="1" parent="QWJo6sBRx8cK9oDJyZg6-151">
          <mxGeometry x="30" width="150" height="30" as="geometry">
            <mxRectangle width="150" height="30" as="alternateBounds" />
          </mxGeometry>
        </mxCell>
        <mxCell id="QWJo6sBRx8cK9oDJyZg6-154" value="" style="shape=tableRow;horizontal=0;startSize=0;swimlaneHead=0;swimlaneBody=0;fillColor=none;collapsible=0;dropTarget=0;points=[[0,0.5],[1,0.5]];portConstraint=eastwest;top=0;left=0;right=0;bottom=0;strokeColor=#0F8B8D;fontColor=#143642;rounded=1;enumerate=0;backgroundOutline=0;metaEdit=0;fixDash=0;snapToPoint=1;comic=0;shadow=0;swimlaneLine=1;labelBackgroundColor=none;" vertex="1" parent="QWJo6sBRx8cK9oDJyZg6-141">
          <mxGeometry y="150" width="180" height="30" as="geometry" />
        </mxCell>
        <mxCell id="QWJo6sBRx8cK9oDJyZg6-155" value="" style="shape=partialRectangle;connectable=0;fillColor=none;top=0;left=0;bottom=0;right=0;editable=1;overflow=hidden;strokeColor=#0F8B8D;fontColor=#143642;rounded=1;enumerate=0;backgroundOutline=0;metaEdit=0;fixDash=0;snapToPoint=1;comic=0;shadow=0;swimlaneLine=1;labelBackgroundColor=none;" vertex="1" parent="QWJo6sBRx8cK9oDJyZg6-154">
          <mxGeometry width="30" height="30" as="geometry">
            <mxRectangle width="30" height="30" as="alternateBounds" />
          </mxGeometry>
        </mxCell>
        <mxCell id="QWJo6sBRx8cK9oDJyZg6-156" value="Notification_preferences " style="shape=partialRectangle;connectable=0;fillColor=none;top=0;left=0;bottom=0;right=0;align=left;spacingLeft=6;overflow=hidden;strokeColor=#0F8B8D;fontColor=#143642;rounded=1;enumerate=0;backgroundOutline=0;metaEdit=0;fixDash=0;snapToPoint=1;comic=0;shadow=0;swimlaneLine=1;labelBackgroundColor=none;" vertex="1" parent="QWJo6sBRx8cK9oDJyZg6-154">
          <mxGeometry x="30" width="150" height="30" as="geometry">
            <mxRectangle width="150" height="30" as="alternateBounds" />
          </mxGeometry>
        </mxCell>
        <mxCell id="QWJo6sBRx8cK9oDJyZg6-157" value="ErrorLog" style="shape=table;startSize=30;container=1;collapsible=1;childLayout=tableLayout;fixedRows=1;rowLines=0;fontStyle=1;align=center;resizeLast=1;rounded=1;enumerate=0;backgroundOutline=0;metaEdit=0;fixDash=0;snapToPoint=1;comic=0;shadow=0;swimlaneLine=1;labelBackgroundColor=none;fillColor=#FAE5C7;strokeColor=#0F8B8D;fontColor=#143642;" vertex="1" parent="1">
          <mxGeometry x="-490" y="640" width="170" height="150" as="geometry" />
        </mxCell>
        <mxCell id="QWJo6sBRx8cK9oDJyZg6-158" value="" style="shape=partialRectangle;collapsible=0;dropTarget=0;pointerEvents=0;fillColor=none;points=[[0,0.5],[1,0.5]];portConstraint=eastwest;top=0;left=0;right=0;bottom=1;rounded=1;enumerate=0;backgroundOutline=0;metaEdit=0;fixDash=0;snapToPoint=1;comic=0;shadow=0;swimlaneLine=1;labelBackgroundColor=none;strokeColor=#0F8B8D;fontColor=#143642;" vertex="1" parent="QWJo6sBRx8cK9oDJyZg6-157">
          <mxGeometry y="30" width="170" height="30" as="geometry" />
        </mxCell>
        <mxCell id="QWJo6sBRx8cK9oDJyZg6-159" value="PK" style="shape=partialRectangle;overflow=hidden;connectable=0;fillColor=none;top=0;left=0;bottom=0;right=0;fontStyle=1;rounded=1;enumerate=0;backgroundOutline=0;metaEdit=0;fixDash=0;snapToPoint=1;comic=0;shadow=0;swimlaneLine=1;labelBackgroundColor=none;strokeColor=#0F8B8D;fontColor=#143642;" vertex="1" parent="QWJo6sBRx8cK9oDJyZg6-158">
          <mxGeometry width="30" height="30" as="geometry">
            <mxRectangle width="30" height="30" as="alternateBounds" />
          </mxGeometry>
        </mxCell>
        <mxCell id="QWJo6sBRx8cK9oDJyZg6-160" value="ID " style="shape=partialRectangle;overflow=hidden;connectable=0;fillColor=none;top=0;left=0;bottom=0;right=0;align=left;spacingLeft=6;fontStyle=5;rounded=1;enumerate=0;backgroundOutline=0;metaEdit=0;fixDash=0;snapToPoint=1;comic=0;shadow=0;swimlaneLine=1;labelBackgroundColor=none;strokeColor=#0F8B8D;fontColor=#143642;" vertex="1" parent="QWJo6sBRx8cK9oDJyZg6-158">
          <mxGeometry x="30" width="140" height="30" as="geometry">
            <mxRectangle width="140" height="30" as="alternateBounds" />
          </mxGeometry>
        </mxCell>
        <mxCell id="QWJo6sBRx8cK9oDJyZg6-161" value="" style="shape=partialRectangle;collapsible=0;dropTarget=0;pointerEvents=0;fillColor=none;points=[[0,0.5],[1,0.5]];portConstraint=eastwest;top=0;left=0;right=0;bottom=0;rounded=1;enumerate=0;backgroundOutline=0;metaEdit=0;fixDash=0;snapToPoint=1;comic=0;shadow=0;swimlaneLine=1;labelBackgroundColor=none;strokeColor=#0F8B8D;fontColor=#143642;" vertex="1" parent="QWJo6sBRx8cK9oDJyZg6-157">
          <mxGeometry y="60" width="170" height="30" as="geometry" />
        </mxCell>
        <mxCell id="QWJo6sBRx8cK9oDJyZg6-162" value="" style="shape=partialRectangle;overflow=hidden;connectable=0;fillColor=none;top=0;left=0;bottom=0;right=0;rounded=1;enumerate=0;backgroundOutline=0;metaEdit=0;fixDash=0;snapToPoint=1;comic=0;shadow=0;swimlaneLine=1;labelBackgroundColor=none;strokeColor=#0F8B8D;fontColor=#143642;" vertex="1" parent="QWJo6sBRx8cK9oDJyZg6-161">
          <mxGeometry width="30" height="30" as="geometry">
            <mxRectangle width="30" height="30" as="alternateBounds" />
          </mxGeometry>
        </mxCell>
        <mxCell id="QWJo6sBRx8cK9oDJyZg6-163" value="Robot_Vacuum_ID " style="shape=partialRectangle;overflow=hidden;connectable=0;fillColor=none;top=0;left=0;bottom=0;right=0;align=left;spacingLeft=6;rounded=1;enumerate=0;backgroundOutline=0;metaEdit=0;fixDash=0;snapToPoint=1;comic=0;shadow=0;swimlaneLine=1;labelBackgroundColor=none;strokeColor=#0F8B8D;fontColor=#143642;" vertex="1" parent="QWJo6sBRx8cK9oDJyZg6-161">
          <mxGeometry x="30" width="140" height="30" as="geometry">
            <mxRectangle width="140" height="30" as="alternateBounds" />
          </mxGeometry>
        </mxCell>
        <mxCell id="QWJo6sBRx8cK9oDJyZg6-164" value="" style="shape=partialRectangle;collapsible=0;dropTarget=0;pointerEvents=0;fillColor=none;points=[[0,0.5],[1,0.5]];portConstraint=eastwest;top=0;left=0;right=0;bottom=0;rounded=1;enumerate=0;backgroundOutline=0;metaEdit=0;fixDash=0;snapToPoint=1;comic=0;shadow=0;swimlaneLine=1;labelBackgroundColor=none;strokeColor=#0F8B8D;fontColor=#143642;" vertex="1" parent="QWJo6sBRx8cK9oDJyZg6-157">
          <mxGeometry y="90" width="170" height="30" as="geometry" />
        </mxCell>
        <mxCell id="QWJo6sBRx8cK9oDJyZg6-165" value="" style="shape=partialRectangle;overflow=hidden;connectable=0;fillColor=none;top=0;left=0;bottom=0;right=0;rounded=1;enumerate=0;backgroundOutline=0;metaEdit=0;fixDash=0;snapToPoint=1;comic=0;shadow=0;swimlaneLine=1;labelBackgroundColor=none;strokeColor=#0F8B8D;fontColor=#143642;" vertex="1" parent="QWJo6sBRx8cK9oDJyZg6-164">
          <mxGeometry width="30" height="30" as="geometry">
            <mxRectangle width="30" height="30" as="alternateBounds" />
          </mxGeometry>
        </mxCell>
        <mxCell id="QWJo6sBRx8cK9oDJyZg6-166" value="Date_time" style="shape=partialRectangle;overflow=hidden;connectable=0;fillColor=none;top=0;left=0;bottom=0;right=0;align=left;spacingLeft=6;rounded=1;enumerate=0;backgroundOutline=0;metaEdit=0;fixDash=0;snapToPoint=1;comic=0;shadow=0;swimlaneLine=1;labelBackgroundColor=none;strokeColor=#0F8B8D;fontColor=#143642;" vertex="1" parent="QWJo6sBRx8cK9oDJyZg6-164">
          <mxGeometry x="30" width="140" height="30" as="geometry">
            <mxRectangle width="140" height="30" as="alternateBounds" />
          </mxGeometry>
        </mxCell>
        <mxCell id="QWJo6sBRx8cK9oDJyZg6-167" value="" style="shape=tableRow;horizontal=0;startSize=0;swimlaneHead=0;swimlaneBody=0;fillColor=none;collapsible=0;dropTarget=0;points=[[0,0.5],[1,0.5]];portConstraint=eastwest;top=0;left=0;right=0;bottom=0;strokeColor=#0F8B8D;fontColor=#143642;rounded=1;enumerate=0;backgroundOutline=0;metaEdit=0;fixDash=0;snapToPoint=1;comic=0;shadow=0;swimlaneLine=1;labelBackgroundColor=none;" vertex="1" parent="QWJo6sBRx8cK9oDJyZg6-157">
          <mxGeometry y="120" width="170" height="30" as="geometry" />
        </mxCell>
        <mxCell id="QWJo6sBRx8cK9oDJyZg6-168" value="" style="shape=partialRectangle;connectable=0;fillColor=none;top=0;left=0;bottom=0;right=0;editable=1;overflow=hidden;strokeColor=#0F8B8D;fontColor=#143642;rounded=1;enumerate=0;backgroundOutline=0;metaEdit=0;fixDash=0;snapToPoint=1;comic=0;shadow=0;swimlaneLine=1;labelBackgroundColor=none;" vertex="1" parent="QWJo6sBRx8cK9oDJyZg6-167">
          <mxGeometry width="30" height="30" as="geometry">
            <mxRectangle width="30" height="30" as="alternateBounds" />
          </mxGeometry>
        </mxCell>
        <mxCell id="QWJo6sBRx8cK9oDJyZg6-169" value="Error_message " style="shape=partialRectangle;connectable=0;fillColor=none;top=0;left=0;bottom=0;right=0;align=left;spacingLeft=6;overflow=hidden;strokeColor=#0F8B8D;fontColor=#143642;rounded=1;enumerate=0;backgroundOutline=0;metaEdit=0;fixDash=0;snapToPoint=1;comic=0;shadow=0;swimlaneLine=1;labelBackgroundColor=none;" vertex="1" parent="QWJo6sBRx8cK9oDJyZg6-167">
          <mxGeometry x="30" width="140" height="30" as="geometry">
            <mxRectangle width="140" height="30" as="alternateBounds" />
          </mxGeometry>
        </mxCell>
        <mxCell id="QWJo6sBRx8cK9oDJyZg6-170" style="rounded=1;orthogonalLoop=1;jettySize=auto;html=1;exitX=0.999;exitY=0.263;exitDx=0;exitDy=0;strokeColor=#A8201A;fontColor=default;fillColor=#FAE5C7;enumerate=0;backgroundOutline=0;metaEdit=0;fixDash=0;snapToPoint=1;comic=0;shadow=0;swimlaneLine=1;jumpStyle=line;edgeStyle=elbowEdgeStyle;exitPerimeter=0;labelBackgroundColor=none;" edge="1" parent="1" source="C-vyLk0tnHw3VtMMgP7b-3" target="QWJo6sBRx8cK9oDJyZg6-100">
          <mxGeometry relative="1" as="geometry">
            <Array as="points">
              <mxPoint x="-70" y="500" />
            </Array>
          </mxGeometry>
        </mxCell>
        <mxCell id="QWJo6sBRx8cK9oDJyZg6-171" style="rounded=1;orthogonalLoop=1;jettySize=auto;html=1;exitX=1;exitY=0.5;exitDx=0;exitDy=0;strokeColor=#A8201A;fontColor=default;fillColor=#FAE5C7;enumerate=0;backgroundOutline=0;metaEdit=0;fixDash=0;snapToPoint=1;comic=0;shadow=0;swimlaneLine=1;jumpStyle=line;edgeStyle=orthogonalEdgeStyle;labelBackgroundColor=none;" edge="1" parent="1" source="C-vyLk0tnHw3VtMMgP7b-14" target="QWJo6sBRx8cK9oDJyZg6-103">
          <mxGeometry relative="1" as="geometry">
            <Array as="points">
              <mxPoint x="-480" y="265" />
              <mxPoint x="-480" y="310" />
              <mxPoint x="-300" y="310" />
              <mxPoint x="-300" y="335" />
            </Array>
          </mxGeometry>
        </mxCell>
        <mxCell id="QWJo6sBRx8cK9oDJyZg6-172" style="rounded=1;orthogonalLoop=1;jettySize=auto;html=1;strokeColor=#A8201A;fontColor=default;fillColor=#FAE5C7;enumerate=0;backgroundOutline=0;metaEdit=0;fixDash=0;snapToPoint=1;comic=0;shadow=0;swimlaneLine=1;jumpStyle=line;edgeStyle=elbowEdgeStyle;entryX=-0.006;entryY=0.142;entryDx=0;entryDy=0;entryPerimeter=0;labelBackgroundColor=none;" edge="1" parent="1" source="QWJo6sBRx8cK9oDJyZg6-116" target="C-vyLk0tnHw3VtMMgP7b-14">
          <mxGeometry relative="1" as="geometry">
            <Array as="points">
              <mxPoint x="-700" y="330" />
            </Array>
          </mxGeometry>
        </mxCell>
        <mxCell id="QWJo6sBRx8cK9oDJyZg6-173" style="rounded=1;orthogonalLoop=1;jettySize=auto;html=1;strokeColor=#A8201A;fontColor=default;fillColor=#FAE5C7;enumerate=0;backgroundOutline=0;metaEdit=0;fixDash=0;snapToPoint=1;comic=0;shadow=0;swimlaneLine=1;jumpStyle=line;edgeStyle=elbowEdgeStyle;entryX=0.996;entryY=0.108;entryDx=0;entryDy=0;entryPerimeter=0;labelBackgroundColor=none;" edge="1" parent="1" source="QWJo6sBRx8cK9oDJyZg6-132" target="C-vyLk0tnHw3VtMMgP7b-3">
          <mxGeometry relative="1" as="geometry">
            <mxPoint x="-260" y="585" as="sourcePoint" />
            <mxPoint x="-259.31999999999994" y="703" as="targetPoint" />
            <Array as="points">
              <mxPoint x="-80" y="610" />
            </Array>
          </mxGeometry>
        </mxCell>
        <mxCell id="QWJo6sBRx8cK9oDJyZg6-174" style="rounded=1;orthogonalLoop=1;jettySize=auto;html=1;strokeColor=#A8201A;fontColor=default;fillColor=#FAE5C7;enumerate=0;backgroundOutline=0;metaEdit=0;fixDash=0;snapToPoint=1;comic=0;shadow=0;swimlaneLine=1;jumpStyle=line;edgeStyle=elbowEdgeStyle;labelBackgroundColor=none;entryX=0.004;entryY=0.857;entryDx=0;entryDy=0;entryPerimeter=0;" edge="1" parent="1" source="QWJo6sBRx8cK9oDJyZg6-161" target="C-vyLk0tnHw3VtMMgP7b-3">
          <mxGeometry relative="1" as="geometry">
            <mxPoint x="-270" y="690" as="targetPoint" />
            <Array as="points">
              <mxPoint x="-290" y="715" />
            </Array>
          </mxGeometry>
        </mxCell>
        <mxCell id="QWJo6sBRx8cK9oDJyZg6-175" style="rounded=1;orthogonalLoop=1;jettySize=auto;html=1;exitX=0;exitY=0.5;exitDx=0;exitDy=0;strokeColor=#A8201A;fontColor=default;fillColor=#FAE5C7;enumerate=0;backgroundOutline=0;metaEdit=0;fixDash=0;snapToPoint=1;comic=0;shadow=0;swimlaneLine=1;jumpStyle=line;edgeStyle=elbowEdgeStyle;entryX=1.002;entryY=0.3;entryDx=0;entryDy=0;entryPerimeter=0;labelBackgroundColor=none;" edge="1" parent="1" source="QWJo6sBRx8cK9oDJyZg6-145" target="QWJo6sBRx8cK9oDJyZg6-55">
          <mxGeometry relative="1" as="geometry" />
        </mxCell>
        <mxCell id="QWJo6sBRx8cK9oDJyZg6-176" style="rounded=1;orthogonalLoop=1;jettySize=auto;html=1;strokeColor=#A8201A;fontColor=default;fillColor=#FAE5C7;enumerate=0;backgroundOutline=0;metaEdit=0;fixDash=0;snapToPoint=1;comic=0;shadow=0;swimlaneLine=1;jumpStyle=line;edgeStyle=elbowEdgeStyle;entryX=1;entryY=0.5;entryDx=0;entryDy=0;labelBackgroundColor=none;" edge="1" parent="1" source="QWJo6sBRx8cK9oDJyZg6-148" target="C-vyLk0tnHw3VtMMgP7b-3">
          <mxGeometry relative="1" as="geometry">
            <mxPoint x="290" y="699" as="targetPoint" />
            <Array as="points">
              <mxPoint x="-50" y="400" />
            </Array>
          </mxGeometry>
        </mxCell>
        <mxCell id="QWJo6sBRx8cK9oDJyZg6-298" value="Map" style="shape=table;startSize=30;container=1;collapsible=1;childLayout=tableLayout;fixedRows=1;rowLines=0;fontStyle=1;align=center;resizeLast=1;rounded=1;enumerate=0;backgroundOutline=0;metaEdit=0;fixDash=0;snapToPoint=1;comic=0;shadow=0;swimlaneLine=1;labelBackgroundColor=none;fillColor=#FAE5C7;strokeColor=#0F8B8D;fontColor=#143642;" vertex="1" parent="1">
          <mxGeometry x="-670" y="400" width="170" height="150" as="geometry" />
        </mxCell>
        <mxCell id="QWJo6sBRx8cK9oDJyZg6-299" value="" style="shape=partialRectangle;collapsible=0;dropTarget=0;pointerEvents=0;fillColor=none;points=[[0,0.5],[1,0.5]];portConstraint=eastwest;top=0;left=0;right=0;bottom=1;rounded=1;enumerate=0;backgroundOutline=0;metaEdit=0;fixDash=0;snapToPoint=1;comic=0;shadow=0;swimlaneLine=1;labelBackgroundColor=none;strokeColor=#0F8B8D;fontColor=#143642;" vertex="1" parent="QWJo6sBRx8cK9oDJyZg6-298">
          <mxGeometry y="30" width="170" height="30" as="geometry" />
        </mxCell>
        <mxCell id="QWJo6sBRx8cK9oDJyZg6-300" value="PK" style="shape=partialRectangle;overflow=hidden;connectable=0;fillColor=none;top=0;left=0;bottom=0;right=0;fontStyle=1;rounded=1;enumerate=0;backgroundOutline=0;metaEdit=0;fixDash=0;snapToPoint=1;comic=0;shadow=0;swimlaneLine=1;labelBackgroundColor=none;strokeColor=#0F8B8D;fontColor=#143642;" vertex="1" parent="QWJo6sBRx8cK9oDJyZg6-299">
          <mxGeometry width="30" height="30" as="geometry">
            <mxRectangle width="30" height="30" as="alternateBounds" />
          </mxGeometry>
        </mxCell>
        <mxCell id="QWJo6sBRx8cK9oDJyZg6-301" value="ID " style="shape=partialRectangle;overflow=hidden;connectable=0;fillColor=none;top=0;left=0;bottom=0;right=0;align=left;spacingLeft=6;fontStyle=5;rounded=1;enumerate=0;backgroundOutline=0;metaEdit=0;fixDash=0;snapToPoint=1;comic=0;shadow=0;swimlaneLine=1;labelBackgroundColor=none;strokeColor=#0F8B8D;fontColor=#143642;" vertex="1" parent="QWJo6sBRx8cK9oDJyZg6-299">
          <mxGeometry x="30" width="140" height="30" as="geometry">
            <mxRectangle width="140" height="30" as="alternateBounds" />
          </mxGeometry>
        </mxCell>
        <mxCell id="QWJo6sBRx8cK9oDJyZg6-302" value="" style="shape=partialRectangle;collapsible=0;dropTarget=0;pointerEvents=0;fillColor=none;points=[[0,0.5],[1,0.5]];portConstraint=eastwest;top=0;left=0;right=0;bottom=0;rounded=1;enumerate=0;backgroundOutline=0;metaEdit=0;fixDash=0;snapToPoint=1;comic=0;shadow=0;swimlaneLine=1;labelBackgroundColor=none;strokeColor=#0F8B8D;fontColor=#143642;" vertex="1" parent="QWJo6sBRx8cK9oDJyZg6-298">
          <mxGeometry y="60" width="170" height="30" as="geometry" />
        </mxCell>
        <mxCell id="QWJo6sBRx8cK9oDJyZg6-303" value="" style="shape=partialRectangle;overflow=hidden;connectable=0;fillColor=none;top=0;left=0;bottom=0;right=0;rounded=1;enumerate=0;backgroundOutline=0;metaEdit=0;fixDash=0;snapToPoint=1;comic=0;shadow=0;swimlaneLine=1;labelBackgroundColor=none;strokeColor=#0F8B8D;fontColor=#143642;" vertex="1" parent="QWJo6sBRx8cK9oDJyZg6-302">
          <mxGeometry width="30" height="30" as="geometry">
            <mxRectangle width="30" height="30" as="alternateBounds" />
          </mxGeometry>
        </mxCell>
        <mxCell id="QWJo6sBRx8cK9oDJyZg6-304" value="Robot_Vacuum_ID " style="shape=partialRectangle;overflow=hidden;connectable=0;fillColor=none;top=0;left=0;bottom=0;right=0;align=left;spacingLeft=6;rounded=1;enumerate=0;backgroundOutline=0;metaEdit=0;fixDash=0;snapToPoint=1;comic=0;shadow=0;swimlaneLine=1;labelBackgroundColor=none;strokeColor=#0F8B8D;fontColor=#143642;" vertex="1" parent="QWJo6sBRx8cK9oDJyZg6-302">
          <mxGeometry x="30" width="140" height="30" as="geometry">
            <mxRectangle width="140" height="30" as="alternateBounds" />
          </mxGeometry>
        </mxCell>
        <mxCell id="QWJo6sBRx8cK9oDJyZg6-305" value="" style="shape=partialRectangle;collapsible=0;dropTarget=0;pointerEvents=0;fillColor=none;points=[[0,0.5],[1,0.5]];portConstraint=eastwest;top=0;left=0;right=0;bottom=0;rounded=1;enumerate=0;backgroundOutline=0;metaEdit=0;fixDash=0;snapToPoint=1;comic=0;shadow=0;swimlaneLine=1;labelBackgroundColor=none;strokeColor=#0F8B8D;fontColor=#143642;" vertex="1" parent="QWJo6sBRx8cK9oDJyZg6-298">
          <mxGeometry y="90" width="170" height="30" as="geometry" />
        </mxCell>
        <mxCell id="QWJo6sBRx8cK9oDJyZg6-306" value="" style="shape=partialRectangle;overflow=hidden;connectable=0;fillColor=none;top=0;left=0;bottom=0;right=0;rounded=1;enumerate=0;backgroundOutline=0;metaEdit=0;fixDash=0;snapToPoint=1;comic=0;shadow=0;swimlaneLine=1;labelBackgroundColor=none;strokeColor=#0F8B8D;fontColor=#143642;" vertex="1" parent="QWJo6sBRx8cK9oDJyZg6-305">
          <mxGeometry width="30" height="30" as="geometry">
            <mxRectangle width="30" height="30" as="alternateBounds" />
          </mxGeometry>
        </mxCell>
        <mxCell id="QWJo6sBRx8cK9oDJyZg6-307" value="Room_ID" style="shape=partialRectangle;overflow=hidden;connectable=0;fillColor=none;top=0;left=0;bottom=0;right=0;align=left;spacingLeft=6;rounded=1;enumerate=0;backgroundOutline=0;metaEdit=0;fixDash=0;snapToPoint=1;comic=0;shadow=0;swimlaneLine=1;labelBackgroundColor=none;strokeColor=#0F8B8D;fontColor=#143642;" vertex="1" parent="QWJo6sBRx8cK9oDJyZg6-305">
          <mxGeometry x="30" width="140" height="30" as="geometry">
            <mxRectangle width="140" height="30" as="alternateBounds" />
          </mxGeometry>
        </mxCell>
        <mxCell id="QWJo6sBRx8cK9oDJyZg6-308" value="" style="shape=tableRow;horizontal=0;startSize=0;swimlaneHead=0;swimlaneBody=0;fillColor=none;collapsible=0;dropTarget=0;points=[[0,0.5],[1,0.5]];portConstraint=eastwest;top=0;left=0;right=0;bottom=0;strokeColor=#0F8B8D;fontColor=#143642;rounded=1;enumerate=0;backgroundOutline=0;metaEdit=0;fixDash=0;snapToPoint=1;comic=0;shadow=0;swimlaneLine=1;labelBackgroundColor=none;" vertex="1" parent="QWJo6sBRx8cK9oDJyZg6-298">
          <mxGeometry y="120" width="170" height="30" as="geometry" />
        </mxCell>
        <mxCell id="QWJo6sBRx8cK9oDJyZg6-309" value="" style="shape=partialRectangle;connectable=0;fillColor=none;top=0;left=0;bottom=0;right=0;editable=1;overflow=hidden;strokeColor=#0F8B8D;fontColor=#143642;rounded=1;enumerate=0;backgroundOutline=0;metaEdit=0;fixDash=0;snapToPoint=1;comic=0;shadow=0;swimlaneLine=1;labelBackgroundColor=none;" vertex="1" parent="QWJo6sBRx8cK9oDJyZg6-308">
          <mxGeometry width="30" height="30" as="geometry">
            <mxRectangle width="30" height="30" as="alternateBounds" />
          </mxGeometry>
        </mxCell>
        <mxCell id="QWJo6sBRx8cK9oDJyZg6-310" value="Map_image" style="shape=partialRectangle;connectable=0;fillColor=none;top=0;left=0;bottom=0;right=0;align=left;spacingLeft=6;overflow=hidden;strokeColor=#0F8B8D;fontColor=#143642;rounded=1;enumerate=0;backgroundOutline=0;metaEdit=0;fixDash=0;snapToPoint=1;comic=0;shadow=0;swimlaneLine=1;labelBackgroundColor=none;" vertex="1" parent="QWJo6sBRx8cK9oDJyZg6-308">
          <mxGeometry x="30" width="140" height="30" as="geometry">
            <mxRectangle width="140" height="30" as="alternateBounds" />
          </mxGeometry>
        </mxCell>
        <mxCell id="QWJo6sBRx8cK9oDJyZg6-311" style="edgeStyle=elbowEdgeStyle;rounded=1;orthogonalLoop=1;jettySize=auto;html=1;strokeColor=#A8201A;fontColor=#143642;fillColor=#FAE5C7;entryX=0.001;entryY=0.327;entryDx=0;entryDy=0;entryPerimeter=0;" edge="1" parent="1" source="QWJo6sBRx8cK9oDJyZg6-302" target="C-vyLk0tnHw3VtMMgP7b-3">
          <mxGeometry relative="1" as="geometry">
            <mxPoint x="-330" y="690" as="targetPoint" />
            <Array as="points">
              <mxPoint x="-300" y="590" />
            </Array>
          </mxGeometry>
        </mxCell>
        <mxCell id="QWJo6sBRx8cK9oDJyZg6-312" value="Cleaning_History" style="shape=table;startSize=30;container=1;collapsible=1;childLayout=tableLayout;fixedRows=1;rowLines=0;fontStyle=1;align=center;resizeLast=1;rounded=1;enumerate=0;backgroundOutline=0;metaEdit=0;fixDash=0;snapToPoint=1;comic=0;shadow=0;swimlaneLine=1;labelBackgroundColor=none;fillColor=#FAE5C7;strokeColor=#0F8B8D;fontColor=#143642;" vertex="1" parent="1">
          <mxGeometry x="-490" y="480" width="170" height="150" as="geometry" />
        </mxCell>
        <mxCell id="QWJo6sBRx8cK9oDJyZg6-313" value="" style="shape=partialRectangle;collapsible=0;dropTarget=0;pointerEvents=0;fillColor=none;points=[[0,0.5],[1,0.5]];portConstraint=eastwest;top=0;left=0;right=0;bottom=1;rounded=1;enumerate=0;backgroundOutline=0;metaEdit=0;fixDash=0;snapToPoint=1;comic=0;shadow=0;swimlaneLine=1;labelBackgroundColor=none;strokeColor=#0F8B8D;fontColor=#143642;" vertex="1" parent="QWJo6sBRx8cK9oDJyZg6-312">
          <mxGeometry y="30" width="170" height="30" as="geometry" />
        </mxCell>
        <mxCell id="QWJo6sBRx8cK9oDJyZg6-314" value="PK" style="shape=partialRectangle;overflow=hidden;connectable=0;fillColor=none;top=0;left=0;bottom=0;right=0;fontStyle=1;rounded=1;enumerate=0;backgroundOutline=0;metaEdit=0;fixDash=0;snapToPoint=1;comic=0;shadow=0;swimlaneLine=1;labelBackgroundColor=none;strokeColor=#0F8B8D;fontColor=#143642;" vertex="1" parent="QWJo6sBRx8cK9oDJyZg6-313">
          <mxGeometry width="30" height="30" as="geometry">
            <mxRectangle width="30" height="30" as="alternateBounds" />
          </mxGeometry>
        </mxCell>
        <mxCell id="QWJo6sBRx8cK9oDJyZg6-315" value="ID " style="shape=partialRectangle;overflow=hidden;connectable=0;fillColor=none;top=0;left=0;bottom=0;right=0;align=left;spacingLeft=6;fontStyle=5;rounded=1;enumerate=0;backgroundOutline=0;metaEdit=0;fixDash=0;snapToPoint=1;comic=0;shadow=0;swimlaneLine=1;labelBackgroundColor=none;strokeColor=#0F8B8D;fontColor=#143642;" vertex="1" parent="QWJo6sBRx8cK9oDJyZg6-313">
          <mxGeometry x="30" width="140" height="30" as="geometry">
            <mxRectangle width="140" height="30" as="alternateBounds" />
          </mxGeometry>
        </mxCell>
        <mxCell id="QWJo6sBRx8cK9oDJyZg6-316" value="" style="shape=partialRectangle;collapsible=0;dropTarget=0;pointerEvents=0;fillColor=none;points=[[0,0.5],[1,0.5]];portConstraint=eastwest;top=0;left=0;right=0;bottom=0;rounded=1;enumerate=0;backgroundOutline=0;metaEdit=0;fixDash=0;snapToPoint=1;comic=0;shadow=0;swimlaneLine=1;labelBackgroundColor=none;strokeColor=#0F8B8D;fontColor=#143642;" vertex="1" parent="QWJo6sBRx8cK9oDJyZg6-312">
          <mxGeometry y="60" width="170" height="30" as="geometry" />
        </mxCell>
        <mxCell id="QWJo6sBRx8cK9oDJyZg6-317" value="" style="shape=partialRectangle;overflow=hidden;connectable=0;fillColor=none;top=0;left=0;bottom=0;right=0;rounded=1;enumerate=0;backgroundOutline=0;metaEdit=0;fixDash=0;snapToPoint=1;comic=0;shadow=0;swimlaneLine=1;labelBackgroundColor=none;strokeColor=#0F8B8D;fontColor=#143642;" vertex="1" parent="QWJo6sBRx8cK9oDJyZg6-316">
          <mxGeometry width="30" height="30" as="geometry">
            <mxRectangle width="30" height="30" as="alternateBounds" />
          </mxGeometry>
        </mxCell>
        <mxCell id="QWJo6sBRx8cK9oDJyZg6-318" value="Robot_Vacuum_ID " style="shape=partialRectangle;overflow=hidden;connectable=0;fillColor=none;top=0;left=0;bottom=0;right=0;align=left;spacingLeft=6;rounded=1;enumerate=0;backgroundOutline=0;metaEdit=0;fixDash=0;snapToPoint=1;comic=0;shadow=0;swimlaneLine=1;labelBackgroundColor=none;strokeColor=#0F8B8D;fontColor=#143642;" vertex="1" parent="QWJo6sBRx8cK9oDJyZg6-316">
          <mxGeometry x="30" width="140" height="30" as="geometry">
            <mxRectangle width="140" height="30" as="alternateBounds" />
          </mxGeometry>
        </mxCell>
        <mxCell id="QWJo6sBRx8cK9oDJyZg6-319" value="" style="shape=partialRectangle;collapsible=0;dropTarget=0;pointerEvents=0;fillColor=none;points=[[0,0.5],[1,0.5]];portConstraint=eastwest;top=0;left=0;right=0;bottom=0;rounded=1;enumerate=0;backgroundOutline=0;metaEdit=0;fixDash=0;snapToPoint=1;comic=0;shadow=0;swimlaneLine=1;labelBackgroundColor=none;strokeColor=#0F8B8D;fontColor=#143642;" vertex="1" parent="QWJo6sBRx8cK9oDJyZg6-312">
          <mxGeometry y="90" width="170" height="30" as="geometry" />
        </mxCell>
        <mxCell id="QWJo6sBRx8cK9oDJyZg6-320" value="" style="shape=partialRectangle;overflow=hidden;connectable=0;fillColor=none;top=0;left=0;bottom=0;right=0;rounded=1;enumerate=0;backgroundOutline=0;metaEdit=0;fixDash=0;snapToPoint=1;comic=0;shadow=0;swimlaneLine=1;labelBackgroundColor=none;strokeColor=#0F8B8D;fontColor=#143642;" vertex="1" parent="QWJo6sBRx8cK9oDJyZg6-319">
          <mxGeometry width="30" height="30" as="geometry">
            <mxRectangle width="30" height="30" as="alternateBounds" />
          </mxGeometry>
        </mxCell>
        <mxCell id="QWJo6sBRx8cK9oDJyZg6-321" value="Room_ID" style="shape=partialRectangle;overflow=hidden;connectable=0;fillColor=none;top=0;left=0;bottom=0;right=0;align=left;spacingLeft=6;rounded=1;enumerate=0;backgroundOutline=0;metaEdit=0;fixDash=0;snapToPoint=1;comic=0;shadow=0;swimlaneLine=1;labelBackgroundColor=none;strokeColor=#0F8B8D;fontColor=#143642;" vertex="1" parent="QWJo6sBRx8cK9oDJyZg6-319">
          <mxGeometry x="30" width="140" height="30" as="geometry">
            <mxRectangle width="140" height="30" as="alternateBounds" />
          </mxGeometry>
        </mxCell>
        <mxCell id="QWJo6sBRx8cK9oDJyZg6-322" value="" style="shape=tableRow;horizontal=0;startSize=0;swimlaneHead=0;swimlaneBody=0;fillColor=none;collapsible=0;dropTarget=0;points=[[0,0.5],[1,0.5]];portConstraint=eastwest;top=0;left=0;right=0;bottom=0;strokeColor=#0F8B8D;fontColor=#143642;rounded=1;enumerate=0;backgroundOutline=0;metaEdit=0;fixDash=0;snapToPoint=1;comic=0;shadow=0;swimlaneLine=1;labelBackgroundColor=none;" vertex="1" parent="QWJo6sBRx8cK9oDJyZg6-312">
          <mxGeometry y="120" width="170" height="30" as="geometry" />
        </mxCell>
        <mxCell id="QWJo6sBRx8cK9oDJyZg6-323" value="" style="shape=partialRectangle;connectable=0;fillColor=none;top=0;left=0;bottom=0;right=0;editable=1;overflow=hidden;strokeColor=#0F8B8D;fontColor=#143642;rounded=1;enumerate=0;backgroundOutline=0;metaEdit=0;fixDash=0;snapToPoint=1;comic=0;shadow=0;swimlaneLine=1;labelBackgroundColor=none;" vertex="1" parent="QWJo6sBRx8cK9oDJyZg6-322">
          <mxGeometry width="30" height="30" as="geometry">
            <mxRectangle width="30" height="30" as="alternateBounds" />
          </mxGeometry>
        </mxCell>
        <mxCell id="QWJo6sBRx8cK9oDJyZg6-324" value="Date_time" style="shape=partialRectangle;connectable=0;fillColor=none;top=0;left=0;bottom=0;right=0;align=left;spacingLeft=6;overflow=hidden;strokeColor=#0F8B8D;fontColor=#143642;rounded=1;enumerate=0;backgroundOutline=0;metaEdit=0;fixDash=0;snapToPoint=1;comic=0;shadow=0;swimlaneLine=1;labelBackgroundColor=none;" vertex="1" parent="QWJo6sBRx8cK9oDJyZg6-322">
          <mxGeometry x="30" width="140" height="30" as="geometry">
            <mxRectangle width="140" height="30" as="alternateBounds" />
          </mxGeometry>
        </mxCell>
        <mxCell id="QWJo6sBRx8cK9oDJyZg6-325" style="edgeStyle=orthogonalEdgeStyle;rounded=1;orthogonalLoop=1;jettySize=auto;html=1;exitX=1;exitY=0.5;exitDx=0;exitDy=0;entryX=0.004;entryY=0.593;entryDx=0;entryDy=0;entryPerimeter=0;strokeColor=#A8201A;fontColor=#143642;fillColor=#FAE5C7;" edge="1" parent="1" source="QWJo6sBRx8cK9oDJyZg6-316" target="C-vyLk0tnHw3VtMMgP7b-3">
          <mxGeometry relative="1" as="geometry">
            <Array as="points">
              <mxPoint x="-310" y="555" />
              <mxPoint x="-310" y="688" />
            </Array>
          </mxGeometry>
        </mxCell>
        <mxCell id="QWJo6sBRx8cK9oDJyZg6-326" style="edgeStyle=orthogonalEdgeStyle;rounded=1;orthogonalLoop=1;jettySize=auto;html=1;exitX=0;exitY=0.5;exitDx=0;exitDy=0;entryX=0.004;entryY=0.74;entryDx=0;entryDy=0;entryPerimeter=0;strokeColor=#A8201A;fontColor=#143642;fillColor=#FAE5C7;" edge="1" parent="1" source="QWJo6sBRx8cK9oDJyZg6-319" target="C-vyLk0tnHw3VtMMgP7b-14">
          <mxGeometry relative="1" as="geometry">
            <Array as="points">
              <mxPoint x="-680" y="585" />
              <mxPoint x="-680" y="272" />
            </Array>
          </mxGeometry>
        </mxCell>
        <mxCell id="QWJo6sBRx8cK9oDJyZg6-327" value="Firmware_Update" style="shape=table;startSize=30;container=1;collapsible=1;childLayout=tableLayout;fixedRows=1;rowLines=0;fontStyle=1;align=center;resizeLast=1;rounded=1;enumerate=0;backgroundOutline=0;metaEdit=0;fixDash=0;snapToPoint=1;comic=0;shadow=0;swimlaneLine=1;labelBackgroundColor=none;fillColor=#FAE5C7;strokeColor=#0F8B8D;fontColor=#143642;" vertex="1" parent="1">
          <mxGeometry x="-670" y="640" width="170" height="150" as="geometry" />
        </mxCell>
        <mxCell id="QWJo6sBRx8cK9oDJyZg6-328" value="" style="shape=partialRectangle;collapsible=0;dropTarget=0;pointerEvents=0;fillColor=none;points=[[0,0.5],[1,0.5]];portConstraint=eastwest;top=0;left=0;right=0;bottom=1;rounded=1;enumerate=0;backgroundOutline=0;metaEdit=0;fixDash=0;snapToPoint=1;comic=0;shadow=0;swimlaneLine=1;labelBackgroundColor=none;strokeColor=#0F8B8D;fontColor=#143642;" vertex="1" parent="QWJo6sBRx8cK9oDJyZg6-327">
          <mxGeometry y="30" width="170" height="30" as="geometry" />
        </mxCell>
        <mxCell id="QWJo6sBRx8cK9oDJyZg6-329" value="PK" style="shape=partialRectangle;overflow=hidden;connectable=0;fillColor=none;top=0;left=0;bottom=0;right=0;fontStyle=1;rounded=1;enumerate=0;backgroundOutline=0;metaEdit=0;fixDash=0;snapToPoint=1;comic=0;shadow=0;swimlaneLine=1;labelBackgroundColor=none;strokeColor=#0F8B8D;fontColor=#143642;" vertex="1" parent="QWJo6sBRx8cK9oDJyZg6-328">
          <mxGeometry width="30" height="30" as="geometry">
            <mxRectangle width="30" height="30" as="alternateBounds" />
          </mxGeometry>
        </mxCell>
        <mxCell id="QWJo6sBRx8cK9oDJyZg6-330" value="ID " style="shape=partialRectangle;overflow=hidden;connectable=0;fillColor=none;top=0;left=0;bottom=0;right=0;align=left;spacingLeft=6;fontStyle=5;rounded=1;enumerate=0;backgroundOutline=0;metaEdit=0;fixDash=0;snapToPoint=1;comic=0;shadow=0;swimlaneLine=1;labelBackgroundColor=none;strokeColor=#0F8B8D;fontColor=#143642;" vertex="1" parent="QWJo6sBRx8cK9oDJyZg6-328">
          <mxGeometry x="30" width="140" height="30" as="geometry">
            <mxRectangle width="140" height="30" as="alternateBounds" />
          </mxGeometry>
        </mxCell>
        <mxCell id="QWJo6sBRx8cK9oDJyZg6-331" value="" style="shape=partialRectangle;collapsible=0;dropTarget=0;pointerEvents=0;fillColor=none;points=[[0,0.5],[1,0.5]];portConstraint=eastwest;top=0;left=0;right=0;bottom=0;rounded=1;enumerate=0;backgroundOutline=0;metaEdit=0;fixDash=0;snapToPoint=1;comic=0;shadow=0;swimlaneLine=1;labelBackgroundColor=none;strokeColor=#0F8B8D;fontColor=#143642;" vertex="1" parent="QWJo6sBRx8cK9oDJyZg6-327">
          <mxGeometry y="60" width="170" height="30" as="geometry" />
        </mxCell>
        <mxCell id="QWJo6sBRx8cK9oDJyZg6-332" value="" style="shape=partialRectangle;overflow=hidden;connectable=0;fillColor=none;top=0;left=0;bottom=0;right=0;rounded=1;enumerate=0;backgroundOutline=0;metaEdit=0;fixDash=0;snapToPoint=1;comic=0;shadow=0;swimlaneLine=1;labelBackgroundColor=none;strokeColor=#0F8B8D;fontColor=#143642;" vertex="1" parent="QWJo6sBRx8cK9oDJyZg6-331">
          <mxGeometry width="30" height="30" as="geometry">
            <mxRectangle width="30" height="30" as="alternateBounds" />
          </mxGeometry>
        </mxCell>
        <mxCell id="QWJo6sBRx8cK9oDJyZg6-333" value="Robot_Vacuum_ID " style="shape=partialRectangle;overflow=hidden;connectable=0;fillColor=none;top=0;left=0;bottom=0;right=0;align=left;spacingLeft=6;rounded=1;enumerate=0;backgroundOutline=0;metaEdit=0;fixDash=0;snapToPoint=1;comic=0;shadow=0;swimlaneLine=1;labelBackgroundColor=none;strokeColor=#0F8B8D;fontColor=#143642;" vertex="1" parent="QWJo6sBRx8cK9oDJyZg6-331">
          <mxGeometry x="30" width="140" height="30" as="geometry">
            <mxRectangle width="140" height="30" as="alternateBounds" />
          </mxGeometry>
        </mxCell>
        <mxCell id="QWJo6sBRx8cK9oDJyZg6-334" value="" style="shape=partialRectangle;collapsible=0;dropTarget=0;pointerEvents=0;fillColor=none;points=[[0,0.5],[1,0.5]];portConstraint=eastwest;top=0;left=0;right=0;bottom=0;rounded=1;enumerate=0;backgroundOutline=0;metaEdit=0;fixDash=0;snapToPoint=1;comic=0;shadow=0;swimlaneLine=1;labelBackgroundColor=none;strokeColor=#0F8B8D;fontColor=#143642;" vertex="1" parent="QWJo6sBRx8cK9oDJyZg6-327">
          <mxGeometry y="90" width="170" height="30" as="geometry" />
        </mxCell>
        <mxCell id="QWJo6sBRx8cK9oDJyZg6-335" value="" style="shape=partialRectangle;overflow=hidden;connectable=0;fillColor=none;top=0;left=0;bottom=0;right=0;rounded=1;enumerate=0;backgroundOutline=0;metaEdit=0;fixDash=0;snapToPoint=1;comic=0;shadow=0;swimlaneLine=1;labelBackgroundColor=none;strokeColor=#0F8B8D;fontColor=#143642;" vertex="1" parent="QWJo6sBRx8cK9oDJyZg6-334">
          <mxGeometry width="30" height="30" as="geometry">
            <mxRectangle width="30" height="30" as="alternateBounds" />
          </mxGeometry>
        </mxCell>
        <mxCell id="QWJo6sBRx8cK9oDJyZg6-336" value="Update_date" style="shape=partialRectangle;overflow=hidden;connectable=0;fillColor=none;top=0;left=0;bottom=0;right=0;align=left;spacingLeft=6;rounded=1;enumerate=0;backgroundOutline=0;metaEdit=0;fixDash=0;snapToPoint=1;comic=0;shadow=0;swimlaneLine=1;labelBackgroundColor=none;strokeColor=#0F8B8D;fontColor=#143642;" vertex="1" parent="QWJo6sBRx8cK9oDJyZg6-334">
          <mxGeometry x="30" width="140" height="30" as="geometry">
            <mxRectangle width="140" height="30" as="alternateBounds" />
          </mxGeometry>
        </mxCell>
        <mxCell id="QWJo6sBRx8cK9oDJyZg6-337" value="" style="shape=tableRow;horizontal=0;startSize=0;swimlaneHead=0;swimlaneBody=0;fillColor=none;collapsible=0;dropTarget=0;points=[[0,0.5],[1,0.5]];portConstraint=eastwest;top=0;left=0;right=0;bottom=0;strokeColor=#0F8B8D;fontColor=#143642;rounded=1;enumerate=0;backgroundOutline=0;metaEdit=0;fixDash=0;snapToPoint=1;comic=0;shadow=0;swimlaneLine=1;labelBackgroundColor=none;" vertex="1" parent="QWJo6sBRx8cK9oDJyZg6-327">
          <mxGeometry y="120" width="170" height="30" as="geometry" />
        </mxCell>
        <mxCell id="QWJo6sBRx8cK9oDJyZg6-338" value="" style="shape=partialRectangle;connectable=0;fillColor=none;top=0;left=0;bottom=0;right=0;editable=1;overflow=hidden;strokeColor=#0F8B8D;fontColor=#143642;rounded=1;enumerate=0;backgroundOutline=0;metaEdit=0;fixDash=0;snapToPoint=1;comic=0;shadow=0;swimlaneLine=1;labelBackgroundColor=none;" vertex="1" parent="QWJo6sBRx8cK9oDJyZg6-337">
          <mxGeometry width="30" height="30" as="geometry">
            <mxRectangle width="30" height="30" as="alternateBounds" />
          </mxGeometry>
        </mxCell>
        <mxCell id="QWJo6sBRx8cK9oDJyZg6-339" value="Update_status " style="shape=partialRectangle;connectable=0;fillColor=none;top=0;left=0;bottom=0;right=0;align=left;spacingLeft=6;overflow=hidden;strokeColor=#0F8B8D;fontColor=#143642;rounded=1;enumerate=0;backgroundOutline=0;metaEdit=0;fixDash=0;snapToPoint=1;comic=0;shadow=0;swimlaneLine=1;labelBackgroundColor=none;" vertex="1" parent="QWJo6sBRx8cK9oDJyZg6-337">
          <mxGeometry x="30" width="140" height="30" as="geometry">
            <mxRectangle width="140" height="30" as="alternateBounds" />
          </mxGeometry>
        </mxCell>
        <mxCell id="QWJo6sBRx8cK9oDJyZg6-340" style="edgeStyle=orthogonalEdgeStyle;rounded=1;orthogonalLoop=1;jettySize=auto;html=1;entryX=0.996;entryY=0.84;entryDx=0;entryDy=0;entryPerimeter=0;strokeColor=#A8201A;fontColor=#143642;fillColor=#FAE5C7;" edge="1" parent="1" source="QWJo6sBRx8cK9oDJyZg6-331" target="C-vyLk0tnHw3VtMMgP7b-3">
          <mxGeometry relative="1" as="geometry">
            <Array as="points">
              <mxPoint x="-680" y="715" />
              <mxPoint x="-680" y="830" />
              <mxPoint x="-80" y="830" />
              <mxPoint x="-80" y="695" />
            </Array>
          </mxGeometry>
        </mxCell>
        <mxCell id="QWJo6sBRx8cK9oDJyZg6-341" style="edgeStyle=orthogonalEdgeStyle;rounded=1;orthogonalLoop=1;jettySize=auto;html=1;exitX=0;exitY=0.5;exitDx=0;exitDy=0;entryX=0;entryY=0.5;entryDx=0;entryDy=0;strokeColor=#A8201A;fontColor=#143642;fillColor=#FAE5C7;jumpStyle=line;" edge="1" parent="1" source="QWJo6sBRx8cK9oDJyZg6-75" target="QWJo6sBRx8cK9oDJyZg6-55">
          <mxGeometry relative="1" as="geometry">
            <Array as="points">
              <mxPoint x="-1020" y="575" />
              <mxPoint x="-1020" y="195" />
            </Array>
          </mxGeometry>
        </mxCell>
        <mxCell id="QWJo6sBRx8cK9oDJyZg6-342" style="rounded=1;orthogonalLoop=1;jettySize=auto;html=1;exitX=1;exitY=0.5;exitDx=0;exitDy=0;strokeColor=#A8201A;fontColor=#143642;fillColor=#FAE5C7;edgeStyle=elbowEdgeStyle;startFill=1;endFill=1;anchorPointDirection=1;jumpStyle=line;" edge="1" parent="1" source="C-vyLk0tnHw3VtMMgP7b-24" target="QWJo6sBRx8cK9oDJyZg6-61">
          <mxGeometry relative="1" as="geometry">
            <Array as="points" />
          </mxGeometry>
        </mxCell>
      </root>
    </mxGraphModel>
  </diagram>
</mxfile>
